<svg xmlns="http://www.w3.org/2000/svg" xmlns:xlink="http://www.w3.org/1999/xlink" id="processonSvg1000" viewBox="91.0 118.875 1014.875 1569.875" width="1014.875" height="1569.875"><defs id="ProcessOnDefs1001"><marker id="ProcessOnMarker1015" markerUnits="userSpaceOnUse" orient="auto" markerWidth="16.23606797749979" markerHeight="10.550836550532098" viewBox="-1.0 -1.3763819204711736 16.23606797749979 10.550836550532098" refX="-1.0" refY="3.8990363547948754"><path id="ProcessOnPath1016" d="M12.0 3.8990363547948754L0.0 7.798072709589751V0.0Z" stroke="#323232" stroke-width="2.0" fill="#323232" transform="matrix(1.0,0.0,0.0,1.0,0.0,0.0)"/></marker><marker id="ProcessOnMarker1023" markerUnits="userSpaceOnUse" orient="auto" markerWidth="16.23606797749979" markerHeight="10.550836550532098" viewBox="-1.0 -1.3763819204711736 16.23606797749979 10.550836550532098" refX="-1.0" refY="3.8990363547948754"><path id="ProcessOnPath1024" d="M12.0 3.8990363547948754L0.0 7.798072709589751V0.0Z" stroke="#323232" stroke-width="2.0" fill="#323232" transform="matrix(1.0,0.0,0.0,1.0,0.0,0.0)"/></marker><marker id="ProcessOnMarker1034" markerUnits="userSpaceOnUse" orient="auto" markerWidth="16.23606797749979" markerHeight="10.550836550532098" viewBox="-1.0 -1.3763819204711736 16.23606797749979 10.550836550532098" refX="-1.0" refY="3.8990363547948754"><path id="ProcessOnPath1035" d="M12.0 3.8990363547948754L0.0 7.798072709589751V0.0Z" stroke="#323232" stroke-width="2.0" fill="#323232" transform="matrix(1.0,0.0,0.0,1.0,0.0,0.0)"/></marker><marker id="ProcessOnMarker1049" markerUnits="userSpaceOnUse" orient="auto" markerWidth="16.23606797749979" markerHeight="10.550836550532098" viewBox="-1.0 -1.3763819204711736 16.23606797749979 10.550836550532098" refX="-1.0" refY="3.8990363547948754"><path id="ProcessOnPath1050" d="M12.0 3.8990363547948754L0.0 7.798072709589751V0.0Z" stroke="#323232" stroke-width="2.0" fill="#323232" transform="matrix(1.0,0.0,0.0,1.0,0.0,0.0)"/></marker><marker id="ProcessOnMarker1060" markerUnits="userSpaceOnUse" orient="auto" markerWidth="16.23606797749979" markerHeight="10.550836550532098" viewBox="-1.0 -1.3763819204711736 16.23606797749979 10.550836550532098" refX="-1.0" refY="3.8990363547948754"><path id="ProcessOnPath1061" d="M12.0 3.8990363547948754L0.0 7.798072709589751V0.0Z" stroke="#323232" stroke-width="2.0" fill="#323232" transform="matrix(1.0,0.0,0.0,1.0,0.0,0.0)"/></marker><marker id="ProcessOnMarker1068" markerUnits="userSpaceOnUse" orient="auto" markerWidth="16.23606797749979" markerHeight="10.550836550532098" viewBox="-1.0 -1.3763819204711736 16.23606797749979 10.550836550532098" refX="-1.0" refY="3.8990363547948754"><path id="ProcessOnPath1069" d="M12.0 3.8990363547948754L0.0 7.798072709589751V0.0Z" stroke="#323232" stroke-width="2.0" fill="#323232" transform="matrix(1.0,0.0,0.0,1.0,0.0,0.0)"/></marker><marker id="ProcessOnMarker1079" markerUnits="userSpaceOnUse" orient="auto" markerWidth="16.23606797749979" markerHeight="10.550836550532098" viewBox="-1.0 -1.3763819204711736 16.23606797749979 10.550836550532098" refX="-1.0" refY="3.8990363547948754"><path id="ProcessOnPath1080" d="M12.0 3.8990363547948754L0.0 7.798072709589751V0.0Z" stroke="#323232" stroke-width="2.0" fill="#323232" transform="matrix(1.0,0.0,0.0,1.0,0.0,0.0)"/></marker><marker id="ProcessOnMarker1094" markerUnits="userSpaceOnUse" orient="auto" markerWidth="16.23606797749979" markerHeight="10.550836550532098" viewBox="-1.0 -1.3763819204711736 16.23606797749979 10.550836550532098" refX="-1.0" refY="3.8990363547948754"><path id="ProcessOnPath1095" d="M12.0 3.8990363547948754L0.0 7.798072709589751V0.0Z" stroke="#323232" stroke-width="2.0" fill="#323232" transform="matrix(1.0,0.0,0.0,1.0,0.0,0.0)"/></marker><marker id="ProcessOnMarker1105" markerUnits="userSpaceOnUse" orient="auto" markerWidth="16.23606797749979" markerHeight="10.550836550532098" viewBox="-1.0 -1.3763819204711736 16.23606797749979 10.550836550532098" refX="-1.0" refY="3.8990363547948754"><path id="ProcessOnPath1106" d="M12.0 3.8990363547948754L0.0 7.798072709589751V0.0Z" stroke="#323232" stroke-width="2.0" fill="#323232" transform="matrix(1.0,0.0,0.0,1.0,0.0,0.0)"/></marker><marker id="ProcessOnMarker1123" markerUnits="userSpaceOnUse" orient="auto" markerWidth="16.23606797749979" markerHeight="10.550836550532098" viewBox="-1.0 -1.3763819204711736 16.23606797749979 10.550836550532098" refX="-1.0" refY="3.8990363547948754"><path id="ProcessOnPath1124" d="M12.0 3.8990363547948754L0.0 7.798072709589751V0.0Z" stroke="#323232" stroke-width="2.0" fill="#323232" transform="matrix(1.0,0.0,0.0,1.0,0.0,0.0)"/></marker><marker id="ProcessOnMarker1130" markerUnits="userSpaceOnUse" orient="auto" markerWidth="16.23606797749979" markerHeight="10.550836550532098" viewBox="-1.0 -1.3763819204711736 16.23606797749979 10.550836550532098" refX="-1.0" refY="3.8990363547948754"><path id="ProcessOnPath1131" d="M12.0 3.8990363547948754L0.0 7.798072709589751V0.0Z" stroke="#323232" stroke-width="2.0" fill="#323232" transform="matrix(1.0,0.0,0.0,1.0,0.0,0.0)"/></marker><marker id="ProcessOnMarker1142" markerUnits="userSpaceOnUse" orient="auto" markerWidth="16.23606797749979" markerHeight="10.550836550532098" viewBox="-1.0 -1.3763819204711736 16.23606797749979 10.550836550532098" refX="-1.0" refY="3.8990363547948754"><path id="ProcessOnPath1143" d="M12.0 3.8990363547948754L0.0 7.798072709589751V0.0Z" stroke="#323232" stroke-width="2.0" fill="#323232" transform="matrix(1.0,0.0,0.0,1.0,0.0,0.0)"/></marker><marker id="ProcessOnMarker1153" markerUnits="userSpaceOnUse" orient="auto" markerWidth="16.23606797749979" markerHeight="10.550836550532098" viewBox="-1.0 -1.3763819204711736 16.23606797749979 10.550836550532098" refX="-1.0" refY="3.8990363547948754"><path id="ProcessOnPath1154" d="M12.0 3.8990363547948754L0.0 7.798072709589751V0.0Z" stroke="#323232" stroke-width="2.0" fill="#323232" transform="matrix(1.0,0.0,0.0,1.0,0.0,0.0)"/></marker><marker id="ProcessOnMarker1164" markerUnits="userSpaceOnUse" orient="auto" markerWidth="16.23606797749979" markerHeight="10.550836550532098" viewBox="-1.0 -1.3763819204711736 16.23606797749979 10.550836550532098" refX="-1.0" refY="3.8990363547948754"><path id="ProcessOnPath1165" d="M12.0 3.8990363547948754L0.0 7.798072709589751V0.0Z" stroke="#323232" stroke-width="2.0" fill="#323232" transform="matrix(1.0,0.0,0.0,1.0,0.0,0.0)"/></marker><marker id="ProcessOnMarker1172" markerUnits="userSpaceOnUse" orient="auto" markerWidth="16.23606797749979" markerHeight="10.550836550532098" viewBox="-1.0 -1.3763819204711736 16.23606797749979 10.550836550532098" refX="-1.0" refY="3.8990363547948754"><path id="ProcessOnPath1173" d="M12.0 3.8990363547948754L0.0 7.798072709589751V0.0Z" stroke="#323232" stroke-width="2.0" fill="#323232" transform="matrix(1.0,0.0,0.0,1.0,0.0,0.0)"/></marker><marker id="ProcessOnMarker1180" markerUnits="userSpaceOnUse" orient="auto" markerWidth="16.23606797749979" markerHeight="10.550836550532098" viewBox="-1.0 -1.3763819204711736 16.23606797749979 10.550836550532098" refX="-1.0" refY="3.8990363547948754"><path id="ProcessOnPath1181" d="M12.0 3.8990363547948754L0.0 7.798072709589751V0.0Z" stroke="#323232" stroke-width="2.0" fill="#323232" transform="matrix(1.0,0.0,0.0,1.0,0.0,0.0)"/></marker><marker id="ProcessOnMarker1188" markerUnits="userSpaceOnUse" orient="auto" markerWidth="16.23606797749979" markerHeight="10.550836550532098" viewBox="-1.0 -1.3763819204711736 16.23606797749979 10.550836550532098" refX="-1.0" refY="3.8990363547948754"><path id="ProcessOnPath1189" d="M12.0 3.8990363547948754L0.0 7.798072709589751V0.0Z" stroke="#323232" stroke-width="2.0" fill="#323232" transform="matrix(1.0,0.0,0.0,1.0,0.0,0.0)"/></marker><marker id="ProcessOnMarker1199" markerUnits="userSpaceOnUse" orient="auto" markerWidth="16.23606797749979" markerHeight="10.550836550532098" viewBox="-1.0 -1.3763819204711736 16.23606797749979 10.550836550532098" refX="-1.0" refY="3.8990363547948754"><path id="ProcessOnPath1200" d="M12.0 3.8990363547948754L0.0 7.798072709589751V0.0Z" stroke="#323232" stroke-width="2.0" fill="#323232" transform="matrix(1.0,0.0,0.0,1.0,0.0,0.0)"/></marker><marker id="ProcessOnMarker1210" markerUnits="userSpaceOnUse" orient="auto" markerWidth="16.23606797749979" markerHeight="10.550836550532098" viewBox="-1.0 -1.3763819204711736 16.23606797749979 10.550836550532098" refX="-1.0" refY="3.8990363547948754"><path id="ProcessOnPath1211" d="M12.0 3.8990363547948754L0.0 7.798072709589751V0.0Z" stroke="#323232" stroke-width="2.0" fill="#323232" transform="matrix(1.0,0.0,0.0,1.0,0.0,0.0)"/></marker><marker id="ProcessOnMarker1214" markerUnits="userSpaceOnUse" orient="auto" markerWidth="16.23606797749979" markerHeight="10.550836550532098" viewBox="-1.0 -1.3763819204711736 16.23606797749979 10.550836550532098" refX="-1.0" refY="3.8990363547948754"><path id="ProcessOnPath1215" d="M12.0 3.8990363547948754L0.0 7.798072709589751V0.0Z" stroke="#323232" stroke-width="2.0" fill="#323232" transform="matrix(1.0,0.0,0.0,1.0,0.0,0.0)"/></marker><marker id="ProcessOnMarker1229" markerUnits="userSpaceOnUse" orient="auto" markerWidth="16.23606797749979" markerHeight="10.550836550532098" viewBox="-1.0 -1.3763819204711736 16.23606797749979 10.550836550532098" refX="-1.0" refY="3.8990363547948754"><path id="ProcessOnPath1230" d="M12.0 3.8990363547948754L0.0 7.798072709589751V0.0Z" stroke="#323232" stroke-width="2.0" fill="#323232" transform="matrix(1.0,0.0,0.0,1.0,0.0,0.0)"/></marker><marker id="ProcessOnMarker1241" markerUnits="userSpaceOnUse" orient="auto" markerWidth="16.23606797749979" markerHeight="10.550836550532098" viewBox="-1.0 -1.3763819204711736 16.23606797749979 10.550836550532098" refX="-1.0" refY="3.8990363547948754"><path id="ProcessOnPath1242" d="M12.0 3.8990363547948754L0.0 7.798072709589751V0.0Z" stroke="#323232" stroke-width="2.0" fill="#323232" transform="matrix(1.0,0.0,0.0,1.0,0.0,0.0)"/></marker><marker id="ProcessOnMarker1253" markerUnits="userSpaceOnUse" orient="auto" markerWidth="16.23606797749979" markerHeight="10.550836550532098" viewBox="-1.0 -1.3763819204711736 16.23606797749979 10.550836550532098" refX="-1.0" refY="3.8990363547948754"><path id="ProcessOnPath1254" d="M12.0 3.8990363547948754L0.0 7.798072709589751V0.0Z" stroke="#323232" stroke-width="2.0" fill="#323232" transform="matrix(1.0,0.0,0.0,1.0,0.0,0.0)"/></marker><marker id="ProcessOnMarker1260" markerUnits="userSpaceOnUse" orient="auto" markerWidth="16.23606797749979" markerHeight="10.550836550532098" viewBox="-1.0 -1.3763819204711736 16.23606797749979 10.550836550532098" refX="-1.0" refY="3.8990363547948754"><path id="ProcessOnPath1261" d="M12.0 3.8990363547948754L0.0 7.798072709589751V0.0Z" stroke="#323232" stroke-width="2.0" fill="#323232" transform="matrix(1.0,0.0,0.0,1.0,0.0,0.0)"/></marker><marker id="ProcessOnMarker1267" markerUnits="userSpaceOnUse" orient="auto" markerWidth="16.23606797749979" markerHeight="10.550836550532098" viewBox="-1.0 -1.3763819204711736 16.23606797749979 10.550836550532098" refX="-1.0" refY="3.8990363547948754"><path id="ProcessOnPath1268" d="M12.0 3.8990363547948754L0.0 7.798072709589751V0.0Z" stroke="#323232" stroke-width="2.0" fill="#323232" transform="matrix(1.0,0.0,0.0,1.0,0.0,0.0)"/></marker><marker id="ProcessOnMarker1278" markerUnits="userSpaceOnUse" orient="auto" markerWidth="16.23606797749979" markerHeight="10.550836550532098" viewBox="-1.0 -1.3763819204711736 16.23606797749979 10.550836550532098" refX="-1.0" refY="3.8990363547948754"><path id="ProcessOnPath1279" d="M12.0 3.8990363547948754L0.0 7.798072709589751V0.0Z" stroke="#323232" stroke-width="2.0" fill="#323232" transform="matrix(1.0,0.0,0.0,1.0,0.0,0.0)"/></marker><marker id="ProcessOnMarker1285" markerUnits="userSpaceOnUse" orient="auto" markerWidth="16.23606797749979" markerHeight="10.550836550532098" viewBox="-1.0 -1.3763819204711736 16.23606797749979 10.550836550532098" refX="-1.0" refY="3.8990363547948754"><path id="ProcessOnPath1286" d="M12.0 3.8990363547948754L0.0 7.798072709589751V0.0Z" stroke="#323232" stroke-width="2.0" fill="#323232" transform="matrix(1.0,0.0,0.0,1.0,0.0,0.0)"/></marker><marker id="ProcessOnMarker1292" markerUnits="userSpaceOnUse" orient="auto" markerWidth="16.23606797749979" markerHeight="10.550836550532098" viewBox="-1.0 -1.3763819204711736 16.23606797749979 10.550836550532098" refX="-1.0" refY="3.8990363547948754"><path id="ProcessOnPath1293" d="M12.0 3.8990363547948754L0.0 7.798072709589751V0.0Z" stroke="#323232" stroke-width="2.0" fill="#323232" transform="matrix(1.0,0.0,0.0,1.0,0.0,0.0)"/></marker><marker id="ProcessOnMarker1299" markerUnits="userSpaceOnUse" orient="auto" markerWidth="16.23606797749979" markerHeight="10.550836550532098" viewBox="-1.0 -1.3763819204711736 16.23606797749979 10.550836550532098" refX="-1.0" refY="3.8990363547948754"><path id="ProcessOnPath1300" d="M12.0 3.8990363547948754L0.0 7.798072709589751V0.0Z" stroke="#323232" stroke-width="2.0" fill="#323232" transform="matrix(1.0,0.0,0.0,1.0,0.0,0.0)"/></marker></defs><g id="ProcessOnG1002"><path id="ProcessOnPath1003" d="M91.0 118.875H1105.875V1688.75H91.0V118.875Z" fill="none"/><g id="ProcessOnG1004"><g id="ProcessOnG1005" transform="matrix(1.0,0.0,0.0,1.0,400.5,138.875)" opacity="1.0"><path id="ProcessOnPath1006" d="M0.0 0.0L176.0 0.0L176.0 48.0L0.0 48.0Z" stroke="#323232" stroke-width="2.0" stroke-dasharray="none" opacity="1.0" fill="#ffffcc"/><g id="ProcessOnG1007" transform="matrix(1.0,0.0,0.0,1.0,10.0,12.125)"><text id="ProcessOnText1008" fill="#000000" font-size="19" x="77.0" y="19.475" font-family="微软雅黑" font-weight="normal" font-style="normal" text-decoration="none" family="微软雅黑" text-anchor="middle" size="19">前端请求数据</text></g></g><g id="ProcessOnG1009" transform="matrix(1.0,0.0,0.0,1.0,392.125,232.875)" opacity="1.0"><path id="ProcessOnPath1010" d="M0.0 32.375L96.375 0.0L192.75 32.375L96.375 64.75Z" stroke="#323232" stroke-width="2.0" stroke-dasharray="none" opacity="1.0" fill="#ccffcc"/><g id="ProcessOnG1011" transform="matrix(1.0,0.0,0.0,1.0,10.0,22.69875)"><text id="ProcessOnText1012" fill="#000000" font-size="16" x="85.375" y="16.4" font-family="微软雅黑" font-weight="normal" font-style="normal" text-decoration="none" family="微软雅黑" text-anchor="middle" size="16">判断接口前缀</text></g></g><g id="ProcessOnG1013"><path id="ProcessOnPath1014" d="M488.5 186.875L488.5 209.875L488.5 209.875L488.5 217.6389320225002" stroke="#323232" stroke-width="2.0" stroke-dasharray="none" fill="none" marker-end="url(#ProcessOnMarker1015)"/></g><g id="ProcessOnG1017" transform="matrix(1.0,0.0,0.0,1.0,740.0,242.0)" opacity="1.0"><path id="ProcessOnPath1018" d="M0.0 0.0L157.0 0.0L157.0 46.5L0.0 46.5Z" stroke="#323232" stroke-width="2.0" stroke-dasharray="none" opacity="1.0" fill="#ff9999"/><g id="ProcessOnG1019" transform="matrix(1.0,0.0,0.0,1.0,10.0,12.0)"><text id="ProcessOnText1020" fill="#000000" font-size="18" x="67.5" y="18.45" font-family="微软雅黑" font-weight="normal" font-style="normal" text-decoration="none" family="微软雅黑" text-anchor="middle" size="18">return 404</text></g></g><g id="ProcessOnG1021"><path id="ProcessOnPath1022" d="M584.875 265.25L662.4375 265.25L662.4375 265.25L724.7639320225002 265.25" stroke="#323232" stroke-width="2.0" stroke-dasharray="none" fill="none" marker-end="url(#ProcessOnMarker1023)"/><g id="ProcessOnG1025" transform="matrix(1.0,0.0,0.0,1.0,654.8194660112501,257.125)"><path id="ProcessOnPath1026" d="M0 0H39.0V16.25H0Z" fill="#fff" transform="matrix(1.0,0.0,0.0,1.0,-19.5,0.0)"/><text id="ProcessOnText1027" fill="#000000" font-size="13" x="0.0" y="13.325" font-family="微软雅黑" font-weight="normal" font-style="normal" text-decoration="none" family="微软雅黑" text-anchor="middle" size="13">不合法</text></g></g><g id="ProcessOnG1028" transform="matrix(1.0,0.0,0.0,1.0,392.125,453.875)" opacity="1.0"><path id="ProcessOnPath1029" d="M0.0 32.375L96.375 0.0L192.75 32.375L96.375 64.75Z" stroke="#323232" stroke-width="2.0" stroke-dasharray="none" opacity="1.0" fill="#ccffcc"/><g id="ProcessOnG1030" transform="matrix(1.0,0.0,0.0,1.0,10.0,23.94875)"><text id="ProcessOnText1031" fill="#000000" font-size="14" x="85.375" y="14.350000000000001" font-family="微软雅黑" font-weight="normal" font-style="normal" text-decoration="none" family="微软雅黑" text-anchor="middle" size="14">判断接口名称是否存在</text></g></g><g id="ProcessOnG1032"><path id="ProcessOnPath1033" d="M584.875 486.25L818.5 486.25L818.5 303.7360679774998" stroke="#323232" stroke-width="2.0" stroke-dasharray="none" fill="none" marker-end="url(#ProcessOnMarker1034)"/><g id="ProcessOnG1036" transform="matrix(1.0,0.0,0.0,1.0,792.9444660112501,478.125)"><path id="ProcessOnPath1037" d="M0 0H39.0V16.25H0Z" fill="#fff" transform="matrix(1.0,0.0,0.0,1.0,-19.5,0.0)"/><text id="ProcessOnText1038" fill="#000000" font-size="13" x="0.0" y="13.325" font-family="微软雅黑" font-weight="normal" font-style="normal" text-decoration="none" family="微软雅黑" text-anchor="middle" size="13">不存在</text></g></g><g id="ProcessOnG1039" transform="matrix(1.0,0.0,0.0,1.0,392.125,778.0)" opacity="1.0"><path id="ProcessOnPath1040" d="M0.0 32.375L96.375 0.0L192.75 32.375L96.375 64.75Z" stroke="#323232" stroke-width="2.0" stroke-dasharray="none" opacity="1.0" fill="#ccffcc"/><g id="ProcessOnG1041" transform="matrix(1.0,0.0,0.0,1.0,10.0,23.94875)"><text id="ProcessOnText1042" fill="#000000" font-size="14" x="85.375" y="14.350000000000001" font-family="微软雅黑" font-weight="normal" font-style="normal" text-decoration="none" family="微软雅黑" text-anchor="middle" size="14">判断是否特殊接口</text></g></g><g id="ProcessOnG1043" transform="matrix(1.0,0.0,0.0,1.0,670.0,788.125)" opacity="1.0"><path id="ProcessOnPath1044" d="M0.0 0.0L162.0 0.0L162.0 46.5L0.0 46.5Z" stroke="#323232" stroke-width="2.0" stroke-dasharray="none" opacity="1.0" fill="#ccffff"/><g id="ProcessOnG1045" transform="matrix(1.0,0.0,0.0,1.0,10.0,14.5)"><text id="ProcessOnText1046" fill="#000000" font-size="14" x="70.0" y="14.350000000000001" font-family="微软雅黑" font-weight="normal" font-style="normal" text-decoration="none" family="微软雅黑" text-anchor="middle" size="14">对应特殊接口处理</text></g></g><g id="ProcessOnG1047"><path id="ProcessOnPath1048" d="M584.875 810.375L627.4375 810.375L627.4375 811.375L654.7639320225002 811.375" stroke="#323232" stroke-width="2.0" stroke-dasharray="none" fill="none" marker-end="url(#ProcessOnMarker1049)"/><g id="ProcessOnG1051" transform="matrix(1.0,0.0,0.0,1.0,620.3194660112501,802.25)"><path id="ProcessOnPath1052" d="M0 0H13.0V16.25H0Z" fill="#fff" transform="matrix(1.0,0.0,0.0,1.0,-6.5,0.0)"/><text id="ProcessOnText1053" fill="#000000" font-size="13" x="0.0" y="13.325" font-family="微软雅黑" font-weight="normal" font-style="normal" text-decoration="none" family="微软雅黑" text-anchor="middle" size="13">是</text></g></g><g id="ProcessOnG1054" transform="matrix(1.0,0.0,0.0,1.0,893.125,779.0)" opacity="1.0"><path id="ProcessOnPath1055" d="M0.0 32.375L96.375 0.0L192.75 32.375L96.375 64.75Z" stroke="#323232" stroke-width="2.0" stroke-dasharray="none" opacity="1.0" fill="#ccffcc"/><g id="ProcessOnG1056" transform="matrix(1.0,0.0,0.0,1.0,10.0,23.94875)"><text id="ProcessOnText1057" fill="#000000" font-size="14" x="85.375" y="14.350000000000001" font-family="微软雅黑" font-weight="normal" font-style="normal" text-decoration="none" family="微软雅黑" text-anchor="middle" size="14">是否异常结果</text></g></g><g id="ProcessOnG1058"><path id="ProcessOnPath1059" d="M832.0 811.375L862.5625 811.375L862.5625 811.375L877.8889320225002 811.375" stroke="#323232" stroke-width="2.0" stroke-dasharray="none" fill="none" marker-end="url(#ProcessOnMarker1060)"/></g><g id="ProcessOnG1062" transform="matrix(1.0,0.0,0.0,1.0,911.0,679.125)" opacity="1.0"><path id="ProcessOnPath1063" d="M0.0 0.0L157.0 0.0L157.0 46.5L0.0 46.5Z" stroke="#323232" stroke-width="2.0" stroke-dasharray="none" opacity="1.0" fill="#ff9999"/><g id="ProcessOnG1064" transform="matrix(1.0,0.0,0.0,1.0,10.0,13.25)"><text id="ProcessOnText1065" fill="#000000" font-size="16" x="67.5" y="16.4" font-family="微软雅黑" font-weight="normal" font-style="normal" text-decoration="none" family="微软雅黑" text-anchor="middle" size="16">返回异常结果</text></g></g><g id="ProcessOnG1066"><path id="ProcessOnPath1067" d="M989.5 779.0L989.5 752.3125L989.5 752.3125L989.5 740.8610679774998" stroke="#323232" stroke-width="2.0" stroke-dasharray="none" fill="none" marker-end="url(#ProcessOnMarker1068)"/><g id="ProcessOnG1070" transform="matrix(1.0,0.0,0.0,1.0,989.5,751.8055339887499)"><path id="ProcessOnPath1071" d="M0 0H26.0V16.25H0Z" fill="#fff" transform="matrix(1.0,0.0,0.0,1.0,-13.0,0.0)"/><text id="ProcessOnText1072" fill="#000000" font-size="13" x="0.0" y="13.325" font-family="微软雅黑" font-weight="normal" font-style="normal" text-decoration="none" family="微软雅黑" text-anchor="middle" size="13">异常</text></g></g><g id="ProcessOnG1073" transform="matrix(1.0,0.0,0.0,1.0,911.0,903.0)" opacity="1.0"><path id="ProcessOnPath1074" d="M0.0 0.0L157.0 0.0L157.0 46.5L0.0 46.5Z" stroke="#323232" stroke-width="2.0" stroke-dasharray="none" opacity="1.0" fill="#cce5ff"/><g id="ProcessOnG1075" transform="matrix(1.0,0.0,0.0,1.0,10.0,14.5)"><text id="ProcessOnText1076" fill="#000000" font-size="14" x="67.5" y="14.350000000000001" font-family="微软雅黑" font-weight="normal" font-style="normal" text-decoration="none" family="微软雅黑" text-anchor="middle" size="14">返回正常结果</text></g></g><g id="ProcessOnG1077"><path id="ProcessOnPath1078" d="M989.5 843.75L989.5 873.375L989.5 873.375L989.5 887.7639320225002" stroke="#323232" stroke-width="2.0" stroke-dasharray="none" fill="none" marker-end="url(#ProcessOnMarker1079)"/><g id="ProcessOnG1081" transform="matrix(1.0,0.0,0.0,1.0,989.5,857.6319660112501)"><path id="ProcessOnPath1082" d="M0 0H26.0V16.25H0Z" fill="#fff" transform="matrix(1.0,0.0,0.0,1.0,-13.0,0.0)"/><text id="ProcessOnText1083" fill="#000000" font-size="13" x="0.0" y="13.325" font-family="微软雅黑" font-weight="normal" font-style="normal" text-decoration="none" family="微软雅黑" text-anchor="middle" size="13">正常</text></g></g><g id="ProcessOnG1084" transform="matrix(1.0,0.0,0.0,1.0,392.125,342.875)" opacity="1.0"><path id="ProcessOnPath1085" d="M0.0 32.375L96.375 0.0L192.75 32.375L96.375 64.75Z" stroke="#323232" stroke-width="2.0" stroke-dasharray="none" opacity="1.0" fill="#ccffcc"/><g id="ProcessOnG1086" transform="matrix(1.0,0.0,0.0,1.0,10.0,23.94875)"><text id="ProcessOnText1087" fill="#000000" font-size="14" x="85.375" y="14.350000000000001" font-family="微软雅黑" font-weight="normal" font-style="normal" text-decoration="none" family="微软雅黑" text-anchor="middle" size="14">判断是否允许的请求方法</text></g></g><g id="ProcessOnG1088" transform="matrix(1.0,0.0,0.0,1.0,111.0,352.0)" opacity="1.0"><path id="ProcessOnPath1089" d="M0.0 0.0L157.0 0.0L157.0 46.5L0.0 46.5Z" stroke="#323232" stroke-width="2.0" stroke-dasharray="none" opacity="1.0" fill="#ff9999"/><g id="ProcessOnG1090" transform="matrix(1.0,0.0,0.0,1.0,10.0,12.0)"><text id="ProcessOnText1091" fill="#000000" font-size="18" x="67.5" y="18.45" font-family="微软雅黑" font-weight="normal" font-style="normal" text-decoration="none" family="微软雅黑" text-anchor="middle" size="18">return 405</text></g></g><g id="ProcessOnG1092"><path id="ProcessOnPath1093" d="M392.125 375.25L330.0625 375.25L330.0625 375.25L283.2360679774998 375.25" stroke="#323232" stroke-width="2.0" stroke-dasharray="none" fill="none" marker-end="url(#ProcessOnMarker1094)"/><g id="ProcessOnG1096" transform="matrix(1.0,0.0,0.0,1.0,337.68053398874986,367.125)"><path id="ProcessOnPath1097" d="M0 0H39.0V16.25H0Z" fill="#fff" transform="matrix(1.0,0.0,0.0,1.0,-19.5,0.0)"/><text id="ProcessOnText1098" fill="#000000" font-size="13" x="0.0" y="13.325" font-family="微软雅黑" font-weight="normal" font-style="normal" text-decoration="none" family="微软雅黑" text-anchor="middle" size="13">不允许</text></g></g><g id="ProcessOnG1099" transform="matrix(1.0,0.0,0.0,1.0,367.5625,880.0)" opacity="1.0"><path id="ProcessOnPath1100" d="M0.0 32.5L120.9375 0.0L241.875 32.5L120.9375 65.0Z" stroke="#323232" stroke-width="2.0" stroke-dasharray="none" opacity="1.0" fill="#ccffcc"/><g id="ProcessOnG1101" transform="matrix(1.0,0.0,0.0,1.0,10.0,24.075000000000003)"><text id="ProcessOnText1102" fill="#000000" font-size="14" x="109.9375" y="14.350000000000001" font-family="微软雅黑" font-weight="normal" font-style="normal" text-decoration="none" family="微软雅黑" text-anchor="middle" size="14">查看是否存在对应前处理程序</text></g></g><g id="ProcessOnG1103"><path id="ProcessOnPath1104" d="M488.5 842.75L488.5 861.375L488.5 861.375L488.5 864.7639320225002" stroke="#323232" stroke-width="2.0" stroke-dasharray="none" fill="none" marker-end="url(#ProcessOnMarker1105)"/><g id="ProcessOnG1107" transform="matrix(1.0,0.0,0.0,1.0,488.5,845.6319660112501)"><path id="ProcessOnPath1108" d="M0 0H145.0V16.25H0Z" fill="#fff" transform="matrix(1.0,0.0,0.0,1.0,-72.5,0.0)"/><text id="ProcessOnText1109" fill="#000000" font-size="13" x="0.0" y="13.325" font-family="微软雅黑" font-weight="normal" font-style="normal" text-decoration="none" family="微软雅黑" text-anchor="middle" size="13">标准数据库 RESTful 接口</text></g></g><g id="ProcessOnG1110" transform="matrix(1.0,0.0,0.0,1.0,111.0,260.625)" opacity="1.0"><path id="ProcessOnPath1111" d="M0.0 0.0L220.0 0.0L236.0 16.0L236.0 58.0L0.0 58.0L0.0 0.0Z" stroke="none" stroke-width="0.0" stroke-dasharray="none" opacity="1.0" fill="#ffffaa"/><path id="ProcessOnPath1112" d="M220.0 0.0L220.0 16.0L236.0 16.0Z" stroke="none" stroke-width="0.0" stroke-dasharray="none" opacity="1.0" fill="#cdcd78"/><path id="ProcessOnPath1113" d="M0.0 0.0L220.0 0.0L236.0 16.0L236.0 58.0L0.0 58.0L0.0 0.0Z" stroke="none" stroke-width="0.0" stroke-dasharray="none" opacity="1.0" fill="none"/><g id="ProcessOnG1114" transform="matrix(1.0,0.0,0.0,1.0,10.0,12.75)"><text id="ProcessOnText1115" fill="#000000" font-size="13" x="0.0" y="13.325" font-family="微软雅黑" font-weight="normal" font-style="normal" text-decoration="none" family="微软雅黑" text-anchor="start" size="13">/xxx 只允许 GET\POST</text><text id="ProcessOnText1116" fill="#000000" font-size="13" x="0.0" y="29.575" font-family="微软雅黑" font-weight="normal" font-style="normal" text-decoration="none" family="微软雅黑" text-anchor="start" size="13">/xxx/:id 只允许 GET\PUT\DELETE</text></g></g><g id="ProcessOnG1117" transform="matrix(1.0,0.0,0.0,1.0,407.5,986.125)" opacity="1.0"><path id="ProcessOnPath1118" d="M0.0 0.0L162.0 0.0L162.0 46.5L0.0 46.5Z" stroke="#323232" stroke-width="2.0" stroke-dasharray="none" opacity="1.0" fill="#ccffff"/><g id="ProcessOnG1119" transform="matrix(1.0,0.0,0.0,1.0,10.0,14.5)"><text id="ProcessOnText1120" fill="#000000" font-size="14" x="70.0" y="14.350000000000001" font-family="微软雅黑" font-weight="normal" font-style="normal" text-decoration="none" family="微软雅黑" text-anchor="middle" size="14">对请求参数进行前处理</text></g></g><g id="ProcessOnG1121"><path id="ProcessOnPath1122" d="M488.5 945.0L488.5 965.5625L488.5 965.5625L488.5 970.8889320225002" stroke="#323232" stroke-width="2.0" stroke-dasharray="none" fill="none" marker-end="url(#ProcessOnMarker1123)"/><g id="ProcessOnG1125" transform="matrix(1.0,0.0,0.0,1.0,488.5,949.8194660112501)"><path id="ProcessOnPath1126" d="M0 0H26.0V16.25H0Z" fill="#fff" transform="matrix(1.0,0.0,0.0,1.0,-13.0,0.0)"/><text id="ProcessOnText1127" fill="#000000" font-size="13" x="0.0" y="13.325" font-family="微软雅黑" font-weight="normal" font-style="normal" text-decoration="none" family="微软雅黑" text-anchor="middle" size="13">存在</text></g></g><g id="ProcessOnG1128"><path id="ProcessOnPath1129" d="M488.5 1032.625L488.5 1052.375L488.5 1052.375L488.5 1056.8889320225003" stroke="#323232" stroke-width="2.0" stroke-dasharray="none" fill="none" marker-end="url(#ProcessOnMarker1130)"/></g><g id="ProcessOnG1132" transform="matrix(1.0,0.0,0.0,1.0,385.28125,1074.0)" opacity="1.0"><path id="ProcessOnPath1133" d="M0.0 30.0L103.21875 0.0L206.4375 30.0L103.21875 60.0Z" stroke="#323232" stroke-width="2.0" stroke-dasharray="none" opacity="1.0" fill="#ccffcc"/><g id="ProcessOnG1134" transform="matrix(1.0,0.0,0.0,1.0,10.0,21.55)"><text id="ProcessOnText1135" fill="#000000" font-size="14" x="92.21875" y="14.350000000000001" font-family="微软雅黑" font-weight="normal" font-style="normal" text-decoration="none" family="微软雅黑" text-anchor="middle" size="14">前处理结果是否返回结果</text></g></g><g id="ProcessOnG1136" transform="matrix(1.0,0.0,0.0,1.0,677.5,1080.75)" opacity="1.0"><path id="ProcessOnPath1137" d="M0.0 0.0L162.0 0.0L162.0 46.5L0.0 46.5Z" stroke="#323232" stroke-width="2.0" stroke-dasharray="none" opacity="1.0" fill="#cce5ff"/><g id="ProcessOnG1138" transform="matrix(1.0,0.0,0.0,1.0,10.0,14.5)"><text id="ProcessOnText1139" fill="#000000" font-size="14" x="70.0" y="14.350000000000001" font-family="微软雅黑" font-weight="normal" font-style="normal" text-decoration="none" family="微软雅黑" text-anchor="middle" size="14">返回结果</text></g></g><g id="ProcessOnG1140"><path id="ProcessOnPath1141" d="M591.71875 1104.0L634.609375 1104.0L634.609375 1104.0L662.2639320225002 1104.0" stroke="#323232" stroke-width="2.0" stroke-dasharray="none" fill="none" marker-end="url(#ProcessOnMarker1142)"/><g id="ProcessOnG1144" transform="matrix(1.0,0.0,0.0,1.0,626.9913410112501,1095.875)"><path id="ProcessOnPath1145" d="M0 0H13.0V16.25H0Z" fill="#fff" transform="matrix(1.0,0.0,0.0,1.0,-6.5,0.0)"/><text id="ProcessOnText1146" fill="#000000" font-size="13" x="0.0" y="13.325" font-family="微软雅黑" font-weight="normal" font-style="normal" text-decoration="none" family="微软雅黑" text-anchor="middle" size="13">是</text></g></g><g id="ProcessOnG1147" transform="matrix(1.0,0.0,0.0,1.0,407.5,1171.75)" opacity="1.0"><path id="ProcessOnPath1148" d="M0.0 0.0L162.0 0.0L162.0 46.5L0.0 46.5Z" stroke="#323232" stroke-width="2.0" stroke-dasharray="none" opacity="1.0" fill="#ccffff"/><g id="ProcessOnG1149" transform="matrix(1.0,0.0,0.0,1.0,10.0,14.5)"><text id="ProcessOnText1150" fill="#000000" font-size="14" x="70.0" y="14.350000000000001" font-family="微软雅黑" font-weight="normal" font-style="normal" text-decoration="none" family="微软雅黑" text-anchor="middle" size="14">组织查询语句</text></g></g><g id="ProcessOnG1151"><path id="ProcessOnPath1152" d="M488.5 1134.0L488.5 1152.875L488.5 1152.875L488.5 1156.5139320225003" stroke="#323232" stroke-width="2.0" stroke-dasharray="none" fill="none" marker-end="url(#ProcessOnMarker1153)"/><g id="ProcessOnG1155" transform="matrix(1.0,0.0,0.0,1.0,488.5,1137.1319660112501)"><path id="ProcessOnPath1156" d="M0 0H13.0V16.25H0Z" fill="#fff" transform="matrix(1.0,0.0,0.0,1.0,-6.5,0.0)"/><text id="ProcessOnText1157" fill="#000000" font-size="13" x="0.0" y="13.325" font-family="微软雅黑" font-weight="normal" font-style="normal" text-decoration="none" family="微软雅黑" text-anchor="middle" size="13">否</text></g></g><g id="ProcessOnG1158" transform="matrix(1.0,0.0,0.0,1.0,407.5,1258.75)" opacity="1.0"><path id="ProcessOnPath1159" d="M0.0 0.0L162.0 0.0L162.0 46.5L0.0 46.5Z" stroke="#323232" stroke-width="2.0" stroke-dasharray="none" opacity="1.0" fill="#ccffff"/><g id="ProcessOnG1160" transform="matrix(1.0,0.0,0.0,1.0,10.0,14.5)"><text id="ProcessOnText1161" fill="#000000" font-size="14" x="70.0" y="14.350000000000001" font-family="微软雅黑" font-weight="normal" font-style="normal" text-decoration="none" family="微软雅黑" text-anchor="middle" size="14">ORM 查询数据库</text></g></g><g id="ProcessOnG1162"><path id="ProcessOnPath1163" d="M488.5 1218.25L488.5 1238.5L488.5 1238.5L488.5 1243.5139320225003" stroke="#323232" stroke-width="2.0" stroke-dasharray="none" fill="none" marker-end="url(#ProcessOnMarker1164)"/></g><g id="ProcessOnG1166" transform="matrix(1.0,0.0,0.0,1.0,407.5,1338.75)" opacity="1.0"><path id="ProcessOnPath1167" d="M0.0 0.0L162.0 0.0L162.0 46.5L0.0 46.5Z" stroke="#323232" stroke-width="2.0" stroke-dasharray="none" opacity="1.0" fill="#ccffff"/><g id="ProcessOnG1168" transform="matrix(1.0,0.0,0.0,1.0,10.0,14.5)"><text id="ProcessOnText1169" fill="#000000" font-size="14" x="70.0" y="14.350000000000001" font-family="微软雅黑" font-weight="normal" font-style="normal" text-decoration="none" family="微软雅黑" text-anchor="middle" size="14">返回查询结果</text></g></g><g id="ProcessOnG1170"><path id="ProcessOnPath1171" d="M488.5 1305.25L488.5 1322.0L488.5 1322.0L488.5 1323.5139320225003" stroke="#323232" stroke-width="2.0" stroke-dasharray="none" fill="none" marker-end="url(#ProcessOnMarker1172)"/></g><g id="ProcessOnG1174" transform="matrix(1.0,0.0,0.0,1.0,367.5625,1421.0)" opacity="1.0"><path id="ProcessOnPath1175" d="M0.0 32.5L120.9375 0.0L241.875 32.5L120.9375 65.0Z" stroke="#323232" stroke-width="2.0" stroke-dasharray="none" opacity="1.0" fill="#ccffcc"/><g id="ProcessOnG1176" transform="matrix(1.0,0.0,0.0,1.0,10.0,24.075000000000003)"><text id="ProcessOnText1177" fill="#000000" font-size="14" x="109.9375" y="14.350000000000001" font-family="微软雅黑" font-weight="normal" font-style="normal" text-decoration="none" family="微软雅黑" text-anchor="middle" size="14">查看是否存在对应后处理程序</text></g></g><g id="ProcessOnG1178"><path id="ProcessOnPath1179" d="M488.5 1385.25L488.5 1403.125L488.5 1403.125L488.5 1405.7639320225003" stroke="#323232" stroke-width="2.0" stroke-dasharray="none" fill="none" marker-end="url(#ProcessOnMarker1180)"/></g><g id="ProcessOnG1182" transform="matrix(1.0,0.0,0.0,1.0,737.5,1430.25)" opacity="1.0"><path id="ProcessOnPath1183" d="M0.0 0.0L162.0 0.0L162.0 46.5L0.0 46.5Z" stroke="#323232" stroke-width="2.0" stroke-dasharray="none" opacity="1.0" fill="#cce5ff"/><g id="ProcessOnG1184" transform="matrix(1.0,0.0,0.0,1.0,10.0,14.5)"><text id="ProcessOnText1185" fill="#000000" font-size="14" x="70.0" y="14.350000000000001" font-family="微软雅黑" font-weight="normal" font-style="normal" text-decoration="none" family="微软雅黑" text-anchor="middle" size="14">返回结果</text></g></g><g id="ProcessOnG1186"><path id="ProcessOnPath1187" d="M609.4375 1453.5L673.46875 1453.5L673.46875 1453.5L722.2639320225002 1453.5" stroke="#323232" stroke-width="2.0" stroke-dasharray="none" fill="none" marker-end="url(#ProcessOnMarker1188)"/><g id="ProcessOnG1190" transform="matrix(1.0,0.0,0.0,1.0,665.8507160112501,1445.375)"><path id="ProcessOnPath1191" d="M0 0H39.0V16.25H0Z" fill="#fff" transform="matrix(1.0,0.0,0.0,1.0,-19.5,0.0)"/><text id="ProcessOnText1192" fill="#000000" font-size="13" x="0.0" y="13.325" font-family="微软雅黑" font-weight="normal" font-style="normal" text-decoration="none" family="微软雅黑" text-anchor="middle" size="13">不存在</text></g></g><g id="ProcessOnG1193" transform="matrix(1.0,0.0,0.0,1.0,407.5,1530.75)" opacity="1.0"><path id="ProcessOnPath1194" d="M0.0 0.0L162.0 0.0L162.0 46.5L0.0 46.5Z" stroke="#323232" stroke-width="2.0" stroke-dasharray="none" opacity="1.0" fill="#ccffff"/><g id="ProcessOnG1195" transform="matrix(1.0,0.0,0.0,1.0,10.0,14.5)"><text id="ProcessOnText1196" fill="#000000" font-size="14" x="70.0" y="14.350000000000001" font-family="微软雅黑" font-weight="normal" font-style="normal" text-decoration="none" family="微软雅黑" text-anchor="middle" size="14">对返回结果进行处理</text></g></g><g id="ProcessOnG1197"><path id="ProcessOnPath1198" d="M488.5 1486.0L488.5 1508.375L488.5 1508.375L488.5 1515.5139320225003" stroke="#323232" stroke-width="2.0" stroke-dasharray="none" fill="none" marker-end="url(#ProcessOnMarker1199)"/><g id="ProcessOnG1201" transform="matrix(1.0,0.0,0.0,1.0,488.5,1492.6319660112501)"><path id="ProcessOnPath1202" d="M0 0H26.0V16.25H0Z" fill="#fff" transform="matrix(1.0,0.0,0.0,1.0,-13.0,0.0)"/><text id="ProcessOnText1203" fill="#000000" font-size="13" x="0.0" y="13.325" font-family="微软雅黑" font-weight="normal" font-style="normal" text-decoration="none" family="微软雅黑" text-anchor="middle" size="13">存在</text></g></g><g id="ProcessOnG1204" transform="matrix(1.0,0.0,0.0,1.0,407.5,1622.25)" opacity="1.0"><path id="ProcessOnPath1205" d="M0.0 0.0L162.0 0.0L162.0 46.5L0.0 46.5Z" stroke="#323232" stroke-width="2.0" stroke-dasharray="none" opacity="1.0" fill="#cce5ff"/><g id="ProcessOnG1206" transform="matrix(1.0,0.0,0.0,1.0,10.0,14.5)"><text id="ProcessOnText1207" fill="#000000" font-size="14" x="70.0" y="14.350000000000001" font-family="微软雅黑" font-weight="normal" font-style="normal" text-decoration="none" family="微软雅黑" text-anchor="middle" size="14">返回结果</text></g></g><g id="ProcessOnG1208"><path id="ProcessOnPath1209" d="M488.5 1577.25L488.5 1599.75L488.5 1599.75L488.5 1607.0139320225003" stroke="#323232" stroke-width="2.0" stroke-dasharray="none" fill="none" marker-end="url(#ProcessOnMarker1210)"/></g><g id="ProcessOnG1212"><path id="ProcessOnPath1213" d="M367.5625 912.5L337.5625 912.5L337.5625 1195.0L392.2639320225002 1195.0" stroke="#323232" stroke-width="2.0" stroke-dasharray="none" fill="none" marker-end="url(#ProcessOnMarker1214)"/><g id="ProcessOnG1216" transform="matrix(1.0,0.0,0.0,1.0,337.5625,1057.9757160112501)"><path id="ProcessOnPath1217" d="M0 0H39.0V16.25H0Z" fill="#fff" transform="matrix(1.0,0.0,0.0,1.0,-19.5,0.0)"/><text id="ProcessOnText1218" fill="#000000" font-size="13" x="0.0" y="13.325" font-family="微软雅黑" font-weight="normal" font-style="normal" text-decoration="none" family="微软雅黑" text-anchor="middle" size="13">不存在</text></g></g><g id="ProcessOnG1219" transform="matrix(1.0,0.0,0.0,1.0,123.0,1213.0)" opacity="1.0"><path id="ProcessOnPath1220" d="M15.659999999999998 0.0L129.34 0.0L145.0 15.659999999999998L145.0 38.339999999999996L129.34 54.0L15.659999999999998 54.0L0.0 38.339999999999996L0.0 15.659999999999998Z" stroke="#323232" stroke-width="2.0" stroke-dasharray="none" opacity="1.0" fill="#ffccff"/><g id="ProcessOnG1221" transform="matrix(1.0,0.0,0.0,1.0,10.0,16.375)"><text id="ProcessOnText1222" fill="#000000" font-size="17" x="61.5" y="17.425" font-family="微软雅黑" font-weight="normal" font-style="normal" text-decoration="none" family="微软雅黑" text-anchor="middle" size="17">程序输出异常</text></g></g><g id="ProcessOnG1223" transform="matrix(1.0,0.0,0.0,1.0,117.0,1317.125)" opacity="1.0"><path id="ProcessOnPath1224" d="M0.0 0.0L157.0 0.0L157.0 46.5L0.0 46.5Z" stroke="#323232" stroke-width="2.0" stroke-dasharray="none" opacity="1.0" fill="#ff9999"/><g id="ProcessOnG1225" transform="matrix(1.0,0.0,0.0,1.0,10.0,12.0)"><text id="ProcessOnText1226" fill="#000000" font-size="18" x="67.5" y="18.45" font-family="微软雅黑" font-weight="normal" font-style="normal" text-decoration="none" family="微软雅黑" text-anchor="middle" size="18">return 503</text></g></g><g id="ProcessOnG1227"><path id="ProcessOnPath1228" d="M195.5 1267.0L195.5 1292.0625L195.5 1292.0625L195.5 1301.8889320225003" stroke="#323232" stroke-width="2.0" stroke-dasharray="none" fill="none" marker-end="url(#ProcessOnMarker1229)"/></g><g id="ProcessOnG1231" transform="matrix(1.0,0.0,0.0,1.0,123.0,1421.0)" opacity="1.0"><path id="ProcessOnPath1232" d="M15.659999999999998 0.0L129.34 0.0L145.0 15.659999999999998L145.0 38.339999999999996L129.34 54.0L15.659999999999998 54.0L0.0 38.339999999999996L0.0 15.659999999999998Z" stroke="#323232" stroke-width="2.0" stroke-dasharray="none" opacity="1.0" fill="#ffccff"/><g id="ProcessOnG1233" transform="matrix(1.0,0.0,0.0,1.0,10.0,16.375)"><text id="ProcessOnText1234" fill="#000000" font-size="17" x="61.5" y="17.425" font-family="微软雅黑" font-weight="normal" font-style="normal" text-decoration="none" family="微软雅黑" text-anchor="middle" size="17">程序未知错误</text></g></g><g id="ProcessOnG1235" transform="matrix(1.0,0.0,0.0,1.0,117.0,1525.125)" opacity="1.0"><path id="ProcessOnPath1236" d="M0.0 0.0L157.0 0.0L157.0 46.5L0.0 46.5Z" stroke="#323232" stroke-width="2.0" stroke-dasharray="none" opacity="1.0" fill="#ff9999"/><g id="ProcessOnG1237" transform="matrix(1.0,0.0,0.0,1.0,10.0,12.0)"><text id="ProcessOnText1238" fill="#000000" font-size="18" x="67.5" y="18.45" font-family="微软雅黑" font-weight="normal" font-style="normal" text-decoration="none" family="微软雅黑" text-anchor="middle" size="18">return 500</text></g></g><g id="ProcessOnG1239"><path id="ProcessOnPath1240" d="M195.5 1475.0L195.5 1500.0625L195.5 1500.0625L195.5 1509.8889320225003" stroke="#323232" stroke-width="2.0" stroke-dasharray="none" fill="none" marker-end="url(#ProcessOnMarker1241)"/></g><g id="ProcessOnG1243" transform="matrix(1.0,0.0,0.0,1.0,392.125,561.875)" opacity="1.0"><path id="ProcessOnPath1244" d="M0.0 32.375L96.375 0.0L192.75 32.375L96.375 64.75Z" stroke="#323232" stroke-width="2.0" stroke-dasharray="none" opacity="1.0" fill="#ccffcc"/><g id="ProcessOnG1245" transform="matrix(1.0,0.0,0.0,1.0,10.0,23.94875)"><text id="ProcessOnText1246" fill="#000000" font-size="14" x="85.375" y="14.350000000000001" font-family="微软雅黑" font-weight="normal" font-style="normal" text-decoration="none" family="微软雅黑" text-anchor="middle" size="14">判断是否要求登录</text></g></g><g id="ProcessOnG1247" transform="matrix(1.0,0.0,0.0,1.0,392.125,660.875)" opacity="1.0"><path id="ProcessOnPath1248" d="M0.0 32.375L96.375 0.0L192.75 32.375L96.375 64.75Z" stroke="#323232" stroke-width="2.0" stroke-dasharray="none" opacity="1.0" fill="#ccffcc"/><g id="ProcessOnG1249" transform="matrix(1.0,0.0,0.0,1.0,10.0,23.94875)"><text id="ProcessOnText1250" fill="#000000" font-size="14" x="85.375" y="14.350000000000001" font-family="微软雅黑" font-weight="normal" font-style="normal" text-decoration="none" family="微软雅黑" text-anchor="middle" size="14">判断是否登录</text></g></g><g id="ProcessOnG1251"><path id="ProcessOnPath1252" d="M488.5 626.625L488.5 643.75L488.5 643.75L488.5 645.6389320225002" stroke="#323232" stroke-width="2.0" stroke-dasharray="none" fill="none" marker-end="url(#ProcessOnMarker1253)"/><g id="ProcessOnG1255" transform="matrix(1.0,0.0,0.0,1.0,488.5,628.0069660112501)"><path id="ProcessOnPath1256" d="M0 0H52.0V16.25H0Z" fill="#fff" transform="matrix(1.0,0.0,0.0,1.0,-26.0,0.0)"/><text id="ProcessOnText1257" fill="#000000" font-size="13" x="0.0" y="13.325" font-family="微软雅黑" font-weight="normal" font-style="normal" text-decoration="none" family="微软雅黑" text-anchor="middle" size="13">要求登录</text></g></g><g id="ProcessOnG1258"><path id="ProcessOnPath1259" d="M392.125 594.25L337.125 594.25L337.125 810.375L376.8889320225002 810.375" stroke="#323232" stroke-width="2.0" stroke-dasharray="none" fill="none" marker-end="url(#ProcessOnMarker1260)"/><g id="ProcessOnG1262" transform="matrix(1.0,0.0,0.0,1.0,337.125,686.5694660112501)"><path id="ProcessOnPath1263" d="M0 0H65.0V16.25H0Z" fill="#fff" transform="matrix(1.0,0.0,0.0,1.0,-32.5,0.0)"/><text id="ProcessOnText1264" fill="#000000" font-size="13" x="0.0" y="13.325" font-family="微软雅黑" font-weight="normal" font-style="normal" text-decoration="none" family="微软雅黑" text-anchor="middle" size="13">不要求登录</text></g></g><g id="ProcessOnG1265"><path id="ProcessOnPath1266" d="M488.5 725.625L488.5 751.8125L488.5 751.8125L488.5 762.7639320225002" stroke="#323232" stroke-width="2.0" stroke-dasharray="none" fill="none" marker-end="url(#ProcessOnMarker1267)"/><g id="ProcessOnG1269" transform="matrix(1.0,0.0,0.0,1.0,488.5,736.0694660112501)"><path id="ProcessOnPath1270" d="M0 0H52.0V16.25H0Z" fill="#fff" transform="matrix(1.0,0.0,0.0,1.0,-26.0,0.0)"/><text id="ProcessOnText1271" fill="#000000" font-size="13" x="0.0" y="13.325" font-family="微软雅黑" font-weight="normal" font-style="normal" text-decoration="none" family="微软雅黑" text-anchor="middle" size="13">已经登录</text></g></g><g id="ProcessOnG1272" transform="matrix(1.0,0.0,0.0,1.0,675.0,670.0)" opacity="1.0"><path id="ProcessOnPath1273" d="M0.0 0.0L157.0 0.0L157.0 46.5L0.0 46.5Z" stroke="#323232" stroke-width="2.0" stroke-dasharray="none" opacity="1.0" fill="#ff9999"/><g id="ProcessOnG1274" transform="matrix(1.0,0.0,0.0,1.0,10.0,12.0)"><text id="ProcessOnText1275" fill="#000000" font-size="18" x="67.5" y="18.45" font-family="微软雅黑" font-weight="normal" font-style="normal" text-decoration="none" family="微软雅黑" text-anchor="middle" size="18">return 401</text></g></g><g id="ProcessOnG1276"><path id="ProcessOnPath1277" d="M584.875 693.25L629.9375 693.25L629.9375 693.25L659.7639320225002 693.25" stroke="#323232" stroke-width="2.0" stroke-dasharray="none" fill="none" marker-end="url(#ProcessOnMarker1278)"/><g id="ProcessOnG1280" transform="matrix(1.0,0.0,0.0,1.0,622.3194660112501,685.125)"><path id="ProcessOnPath1281" d="M0 0H39.0V16.25H0Z" fill="#fff" transform="matrix(1.0,0.0,0.0,1.0,-19.5,0.0)"/><text id="ProcessOnText1282" fill="#000000" font-size="13" x="0.0" y="13.325" font-family="微软雅黑" font-weight="normal" font-style="normal" text-decoration="none" family="微软雅黑" text-anchor="middle" size="13">未登录</text></g></g><g id="ProcessOnG1283"><path id="ProcessOnPath1284" d="M488.5 407.625L488.5 430.75L488.5 430.75L488.5 438.6389320225002" stroke="#323232" stroke-width="2.0" stroke-dasharray="none" fill="none" marker-end="url(#ProcessOnMarker1285)"/><g id="ProcessOnG1287" transform="matrix(1.0,0.0,0.0,1.0,488.5,415.00696601125014)"><path id="ProcessOnPath1288" d="M0 0H26.0V16.25H0Z" fill="#fff" transform="matrix(1.0,0.0,0.0,1.0,-13.0,0.0)"/><text id="ProcessOnText1289" fill="#000000" font-size="13" x="0.0" y="13.325" font-family="微软雅黑" font-weight="normal" font-style="normal" text-decoration="none" family="微软雅黑" text-anchor="middle" size="13">允许</text></g></g><g id="ProcessOnG1290"><path id="ProcessOnPath1291" d="M488.5 297.625L488.5 320.25L488.5 320.25L488.5 327.6389320225002" stroke="#323232" stroke-width="2.0" stroke-dasharray="none" fill="none" marker-end="url(#ProcessOnMarker1292)"/><g id="ProcessOnG1294" transform="matrix(1.0,0.0,0.0,1.0,488.5,304.50696601125014)"><path id="ProcessOnPath1295" d="M0 0H143.0V16.25H0Z" fill="#fff" transform="matrix(1.0,0.0,0.0,1.0,-71.5,0.0)"/><text id="ProcessOnText1296" fill="#000000" font-size="13" x="0.0" y="13.325" font-family="微软雅黑" font-weight="normal" font-style="normal" text-decoration="none" family="微软雅黑" text-anchor="middle" size="13">合法，转入对应处理流程</text></g></g><g id="ProcessOnG1297"><path id="ProcessOnPath1298" d="M488.5 518.625L488.5 540.25L488.5 540.25L488.5 546.6389320225002" stroke="#323232" stroke-width="2.0" stroke-dasharray="none" fill="none" marker-end="url(#ProcessOnMarker1299)"/><g id="ProcessOnG1301" transform="matrix(1.0,0.0,0.0,1.0,488.5,524.5069660112501)"><path id="ProcessOnPath1302" d="M0 0H26.0V16.25H0Z" fill="#fff" transform="matrix(1.0,0.0,0.0,1.0,-13.0,0.0)"/><text id="ProcessOnText1303" fill="#000000" font-size="13" x="0.0" y="13.325" font-family="微软雅黑" font-weight="normal" font-style="normal" text-decoration="none" family="微软雅黑" text-anchor="middle" size="13">存在</text></g></g></g></g></svg>