<svg xmlns="http://www.w3.org/2000/svg" xmlns:xlink="http://www.w3.org/1999/xlink" id="processonSvg1000" viewBox="97.0 118.875 1008.875 1569.875" width="1008.875" height="1569.875"><defs id="ProcessOnDefs1001"><marker id="ProcessOnMarker1015" markerUnits="userSpaceOnUse" orient="auto" markerWidth="16.23606797749979" markerHeight="10.550836550532098" viewBox="-1.0 -1.3763819204711736 16.23606797749979 10.550836550532098" refX="-1.0" refY="3.8990363547948754"><path id="ProcessOnPath1016" d="M12.0 3.8990363547948754L0.0 7.798072709589751V0.0Z" stroke="#323232" stroke-width="2.0" fill="#323232" transform="matrix(1.0,0.0,0.0,1.0,0.0,0.0)"/></marker><marker id="ProcessOnMarker1019" markerUnits="userSpaceOnUse" orient="auto" markerWidth="16.23606797749979" markerHeight="10.550836550532098" viewBox="-1.0 -1.3763819204711736 16.23606797749979 10.550836550532098" refX="-1.0" refY="3.8990363547948754"><path id="ProcessOnPath1020" d="M12.0 3.8990363547948754L0.0 7.798072709589751V0.0Z" stroke="#323232" stroke-width="2.0" fill="#323232" transform="matrix(1.0,0.0,0.0,1.0,0.0,0.0)"/></marker><marker id="ProcessOnMarker1030" markerUnits="userSpaceOnUse" orient="auto" markerWidth="16.23606797749979" markerHeight="10.550836550532098" viewBox="-1.0 -1.3763819204711736 16.23606797749979 10.550836550532098" refX="-1.0" refY="3.8990363547948754"><path id="ProcessOnPath1031" d="M12.0 3.8990363547948754L0.0 7.798072709589751V0.0Z" stroke="#323232" stroke-width="2.0" fill="#323232" transform="matrix(1.0,0.0,0.0,1.0,0.0,0.0)"/></marker><marker id="ProcessOnMarker1041" markerUnits="userSpaceOnUse" orient="auto" markerWidth="16.23606797749979" markerHeight="10.550836550532098" viewBox="-1.0 -1.3763819204711736 16.23606797749979 10.550836550532098" refX="-1.0" refY="3.8990363547948754"><path id="ProcessOnPath1042" d="M12.0 3.8990363547948754L0.0 7.798072709589751V0.0Z" stroke="#323232" stroke-width="2.0" fill="#323232" transform="matrix(1.0,0.0,0.0,1.0,0.0,0.0)"/></marker><marker id="ProcessOnMarker1052" markerUnits="userSpaceOnUse" orient="auto" markerWidth="16.23606797749979" markerHeight="10.550836550532098" viewBox="-1.0 -1.3763819204711736 16.23606797749979 10.550836550532098" refX="-1.0" refY="3.8990363547948754"><path id="ProcessOnPath1053" d="M12.0 3.8990363547948754L0.0 7.798072709589751V0.0Z" stroke="#323232" stroke-width="2.0" fill="#323232" transform="matrix(1.0,0.0,0.0,1.0,0.0,0.0)"/></marker><marker id="ProcessOnMarker1063" markerUnits="userSpaceOnUse" orient="auto" markerWidth="16.23606797749979" markerHeight="10.550836550532098" viewBox="-1.0 -1.3763819204711736 16.23606797749979 10.550836550532098" refX="-1.0" refY="3.8990363547948754"><path id="ProcessOnPath1064" d="M12.0 3.8990363547948754L0.0 7.798072709589751V0.0Z" stroke="#323232" stroke-width="2.0" fill="#323232" transform="matrix(1.0,0.0,0.0,1.0,0.0,0.0)"/></marker><marker id="ProcessOnMarker1074" markerUnits="userSpaceOnUse" orient="auto" markerWidth="16.23606797749979" markerHeight="10.550836550532098" viewBox="-1.0 -1.3763819204711736 16.23606797749979 10.550836550532098" refX="-1.0" refY="3.8990363547948754"><path id="ProcessOnPath1075" d="M12.0 3.8990363547948754L0.0 7.798072709589751V0.0Z" stroke="#323232" stroke-width="2.0" fill="#323232" transform="matrix(1.0,0.0,0.0,1.0,0.0,0.0)"/></marker><marker id="ProcessOnMarker1082" markerUnits="userSpaceOnUse" orient="auto" markerWidth="16.23606797749979" markerHeight="10.550836550532098" viewBox="-1.0 -1.3763819204711736 16.23606797749979 10.550836550532098" refX="-1.0" refY="3.8990363547948754"><path id="ProcessOnPath1083" d="M12.0 3.8990363547948754L0.0 7.798072709589751V0.0Z" stroke="#323232" stroke-width="2.0" fill="#323232" transform="matrix(1.0,0.0,0.0,1.0,0.0,0.0)"/></marker><marker id="ProcessOnMarker1093" markerUnits="userSpaceOnUse" orient="auto" markerWidth="16.23606797749979" markerHeight="10.550836550532098" viewBox="-1.0 -1.3763819204711736 16.23606797749979 10.550836550532098" refX="-1.0" refY="3.8990363547948754"><path id="ProcessOnPath1094" d="M12.0 3.8990363547948754L0.0 7.798072709589751V0.0Z" stroke="#323232" stroke-width="2.0" fill="#323232" transform="matrix(1.0,0.0,0.0,1.0,0.0,0.0)"/></marker><marker id="ProcessOnMarker1104" markerUnits="userSpaceOnUse" orient="auto" markerWidth="16.23606797749979" markerHeight="10.550836550532098" viewBox="-1.0 -1.3763819204711736 16.23606797749979 10.550836550532098" refX="-1.0" refY="3.8990363547948754"><path id="ProcessOnPath1105" d="M12.0 3.8990363547948754L0.0 7.798072709589751V0.0Z" stroke="#323232" stroke-width="2.0" fill="#323232" transform="matrix(1.0,0.0,0.0,1.0,0.0,0.0)"/></marker><marker id="ProcessOnMarker1112" markerUnits="userSpaceOnUse" orient="auto" markerWidth="16.23606797749979" markerHeight="10.550836550532098" viewBox="-1.0 -1.3763819204711736 16.23606797749979 10.550836550532098" refX="-1.0" refY="3.8990363547948754"><path id="ProcessOnPath1113" d="M12.0 3.8990363547948754L0.0 7.798072709589751V0.0Z" stroke="#323232" stroke-width="2.0" fill="#323232" transform="matrix(1.0,0.0,0.0,1.0,0.0,0.0)"/></marker><marker id="ProcessOnMarker1123" markerUnits="userSpaceOnUse" orient="auto" markerWidth="16.23606797749979" markerHeight="10.550836550532098" viewBox="-1.0 -1.3763819204711736 16.23606797749979 10.550836550532098" refX="-1.0" refY="3.8990363547948754"><path id="ProcessOnPath1124" d="M12.0 3.8990363547948754L0.0 7.798072709589751V0.0Z" stroke="#323232" stroke-width="2.0" fill="#323232" transform="matrix(1.0,0.0,0.0,1.0,0.0,0.0)"/></marker><marker id="ProcessOnMarker1141" markerUnits="userSpaceOnUse" orient="auto" markerWidth="16.23606797749979" markerHeight="10.550836550532098" viewBox="-1.0 -1.3763819204711736 16.23606797749979 10.550836550532098" refX="-1.0" refY="3.8990363547948754"><path id="ProcessOnPath1142" d="M12.0 3.8990363547948754L0.0 7.798072709589751V0.0Z" stroke="#323232" stroke-width="2.0" fill="#323232" transform="matrix(1.0,0.0,0.0,1.0,0.0,0.0)"/></marker><marker id="ProcessOnMarker1148" markerUnits="userSpaceOnUse" orient="auto" markerWidth="16.23606797749979" markerHeight="10.550836550532098" viewBox="-1.0 -1.3763819204711736 16.23606797749979 10.550836550532098" refX="-1.0" refY="3.8990363547948754"><path id="ProcessOnPath1149" d="M12.0 3.8990363547948754L0.0 7.798072709589751V0.0Z" stroke="#323232" stroke-width="2.0" fill="#323232" transform="matrix(1.0,0.0,0.0,1.0,0.0,0.0)"/></marker><marker id="ProcessOnMarker1160" markerUnits="userSpaceOnUse" orient="auto" markerWidth="16.23606797749979" markerHeight="10.550836550532098" viewBox="-1.0 -1.3763819204711736 16.23606797749979 10.550836550532098" refX="-1.0" refY="3.8990363547948754"><path id="ProcessOnPath1161" d="M12.0 3.8990363547948754L0.0 7.798072709589751V0.0Z" stroke="#323232" stroke-width="2.0" fill="#323232" transform="matrix(1.0,0.0,0.0,1.0,0.0,0.0)"/></marker><marker id="ProcessOnMarker1171" markerUnits="userSpaceOnUse" orient="auto" markerWidth="16.23606797749979" markerHeight="10.550836550532098" viewBox="-1.0 -1.3763819204711736 16.23606797749979 10.550836550532098" refX="-1.0" refY="3.8990363547948754"><path id="ProcessOnPath1172" d="M12.0 3.8990363547948754L0.0 7.798072709589751V0.0Z" stroke="#323232" stroke-width="2.0" fill="#323232" transform="matrix(1.0,0.0,0.0,1.0,0.0,0.0)"/></marker><marker id="ProcessOnMarker1182" markerUnits="userSpaceOnUse" orient="auto" markerWidth="16.23606797749979" markerHeight="10.550836550532098" viewBox="-1.0 -1.3763819204711736 16.23606797749979 10.550836550532098" refX="-1.0" refY="3.8990363547948754"><path id="ProcessOnPath1183" d="M12.0 3.8990363547948754L0.0 7.798072709589751V0.0Z" stroke="#323232" stroke-width="2.0" fill="#323232" transform="matrix(1.0,0.0,0.0,1.0,0.0,0.0)"/></marker><marker id="ProcessOnMarker1190" markerUnits="userSpaceOnUse" orient="auto" markerWidth="16.23606797749979" markerHeight="10.550836550532098" viewBox="-1.0 -1.3763819204711736 16.23606797749979 10.550836550532098" refX="-1.0" refY="3.8990363547948754"><path id="ProcessOnPath1191" d="M12.0 3.8990363547948754L0.0 7.798072709589751V0.0Z" stroke="#323232" stroke-width="2.0" fill="#323232" transform="matrix(1.0,0.0,0.0,1.0,0.0,0.0)"/></marker><marker id="ProcessOnMarker1198" markerUnits="userSpaceOnUse" orient="auto" markerWidth="16.23606797749979" markerHeight="10.550836550532098" viewBox="-1.0 -1.3763819204711736 16.23606797749979 10.550836550532098" refX="-1.0" refY="3.8990363547948754"><path id="ProcessOnPath1199" d="M12.0 3.8990363547948754L0.0 7.798072709589751V0.0Z" stroke="#323232" stroke-width="2.0" fill="#323232" transform="matrix(1.0,0.0,0.0,1.0,0.0,0.0)"/></marker><marker id="ProcessOnMarker1206" markerUnits="userSpaceOnUse" orient="auto" markerWidth="16.23606797749979" markerHeight="10.550836550532098" viewBox="-1.0 -1.3763819204711736 16.23606797749979 10.550836550532098" refX="-1.0" refY="3.8990363547948754"><path id="ProcessOnPath1207" d="M12.0 3.8990363547948754L0.0 7.798072709589751V0.0Z" stroke="#323232" stroke-width="2.0" fill="#323232" transform="matrix(1.0,0.0,0.0,1.0,0.0,0.0)"/></marker><marker id="ProcessOnMarker1217" markerUnits="userSpaceOnUse" orient="auto" markerWidth="16.23606797749979" markerHeight="10.550836550532098" viewBox="-1.0 -1.3763819204711736 16.23606797749979 10.550836550532098" refX="-1.0" refY="3.8990363547948754"><path id="ProcessOnPath1218" d="M12.0 3.8990363547948754L0.0 7.798072709589751V0.0Z" stroke="#323232" stroke-width="2.0" fill="#323232" transform="matrix(1.0,0.0,0.0,1.0,0.0,0.0)"/></marker><marker id="ProcessOnMarker1228" markerUnits="userSpaceOnUse" orient="auto" markerWidth="16.23606797749979" markerHeight="10.550836550532098" viewBox="-1.0 -1.3763819204711736 16.23606797749979 10.550836550532098" refX="-1.0" refY="3.8990363547948754"><path id="ProcessOnPath1229" d="M12.0 3.8990363547948754L0.0 7.798072709589751V0.0Z" stroke="#323232" stroke-width="2.0" fill="#323232" transform="matrix(1.0,0.0,0.0,1.0,0.0,0.0)"/></marker><marker id="ProcessOnMarker1232" markerUnits="userSpaceOnUse" orient="auto" markerWidth="16.23606797749979" markerHeight="10.550836550532098" viewBox="-1.0 -1.3763819204711736 16.23606797749979 10.550836550532098" refX="-1.0" refY="3.8990363547948754"><path id="ProcessOnPath1233" d="M12.0 3.8990363547948754L0.0 7.798072709589751V0.0Z" stroke="#323232" stroke-width="2.0" fill="#323232" transform="matrix(1.0,0.0,0.0,1.0,0.0,0.0)"/></marker><marker id="ProcessOnMarker1247" markerUnits="userSpaceOnUse" orient="auto" markerWidth="16.23606797749979" markerHeight="10.550836550532098" viewBox="-1.0 -1.3763819204711736 16.23606797749979 10.550836550532098" refX="-1.0" refY="3.8990363547948754"><path id="ProcessOnPath1248" d="M12.0 3.8990363547948754L0.0 7.798072709589751V0.0Z" stroke="#323232" stroke-width="2.0" fill="#323232" transform="matrix(1.0,0.0,0.0,1.0,0.0,0.0)"/></marker><marker id="ProcessOnMarker1259" markerUnits="userSpaceOnUse" orient="auto" markerWidth="16.23606797749979" markerHeight="10.550836550532098" viewBox="-1.0 -1.3763819204711736 16.23606797749979 10.550836550532098" refX="-1.0" refY="3.8990363547948754"><path id="ProcessOnPath1260" d="M12.0 3.8990363547948754L0.0 7.798072709589751V0.0Z" stroke="#323232" stroke-width="2.0" fill="#323232" transform="matrix(1.0,0.0,0.0,1.0,0.0,0.0)"/></marker><marker id="ProcessOnMarker1271" markerUnits="userSpaceOnUse" orient="auto" markerWidth="16.23606797749979" markerHeight="10.550836550532098" viewBox="-1.0 -1.3763819204711736 16.23606797749979 10.550836550532098" refX="-1.0" refY="3.8990363547948754"><path id="ProcessOnPath1272" d="M12.0 3.8990363547948754L0.0 7.798072709589751V0.0Z" stroke="#323232" stroke-width="2.0" fill="#323232" transform="matrix(1.0,0.0,0.0,1.0,0.0,0.0)"/></marker><marker id="ProcessOnMarker1278" markerUnits="userSpaceOnUse" orient="auto" markerWidth="16.23606797749979" markerHeight="10.550836550532098" viewBox="-1.0 -1.3763819204711736 16.23606797749979 10.550836550532098" refX="-1.0" refY="3.8990363547948754"><path id="ProcessOnPath1279" d="M12.0 3.8990363547948754L0.0 7.798072709589751V0.0Z" stroke="#323232" stroke-width="2.0" fill="#323232" transform="matrix(1.0,0.0,0.0,1.0,0.0,0.0)"/></marker><marker id="ProcessOnMarker1285" markerUnits="userSpaceOnUse" orient="auto" markerWidth="16.23606797749979" markerHeight="10.550836550532098" viewBox="-1.0 -1.3763819204711736 16.23606797749979 10.550836550532098" refX="-1.0" refY="3.8990363547948754"><path id="ProcessOnPath1286" d="M12.0 3.8990363547948754L0.0 7.798072709589751V0.0Z" stroke="#323232" stroke-width="2.0" fill="#323232" transform="matrix(1.0,0.0,0.0,1.0,0.0,0.0)"/></marker><marker id="ProcessOnMarker1296" markerUnits="userSpaceOnUse" orient="auto" markerWidth="16.23606797749979" markerHeight="10.550836550532098" viewBox="-1.0 -1.3763819204711736 16.23606797749979 10.550836550532098" refX="-1.0" refY="3.8990363547948754"><path id="ProcessOnPath1297" d="M12.0 3.8990363547948754L0.0 7.798072709589751V0.0Z" stroke="#323232" stroke-width="2.0" fill="#323232" transform="matrix(1.0,0.0,0.0,1.0,0.0,0.0)"/></marker></defs><g id="ProcessOnG1002"><path id="ProcessOnPath1003" d="M97.0 118.875H1105.875V1688.75H97.0V118.875Z" fill="none"/><g id="ProcessOnG1004"><g id="ProcessOnG1005" transform="matrix(1.0,0.0,0.0,1.0,400.5,138.875)" opacity="1.0"><path id="ProcessOnPath1006" d="M0.0 0.0L176.0 0.0L176.0 48.0L0.0 48.0Z" stroke="#323232" stroke-width="2.0" stroke-dasharray="none" opacity="1.0" fill="#ffffcc"/><g id="ProcessOnG1007" transform="matrix(1.0,0.0,0.0,1.0,10.0,12.125)"><text id="ProcessOnText1008" fill="#000000" font-size="19" x="77.0" y="19.475" font-family="微软雅黑" font-weight="normal" font-style="normal" text-decoration="none" family="微软雅黑" text-anchor="middle" size="19">前端请求数据</text></g></g><g id="ProcessOnG1009" transform="matrix(1.0,0.0,0.0,1.0,392.125,232.875)" opacity="1.0"><path id="ProcessOnPath1010" d="M0.0 32.375L96.375 0.0L192.75 32.375L96.375 64.75Z" stroke="#323232" stroke-width="2.0" stroke-dasharray="none" opacity="1.0" fill="#ccffcc"/><g id="ProcessOnG1011" transform="matrix(1.0,0.0,0.0,1.0,10.0,22.69875)"><text id="ProcessOnText1012" fill="#000000" font-size="16" x="85.375" y="16.4" font-family="微软雅黑" font-weight="normal" font-style="normal" text-decoration="none" family="微软雅黑" text-anchor="middle" size="16">判断接口前缀</text></g></g><g id="ProcessOnG1013"><path id="ProcessOnPath1014" d="M488.5 186.875L488.5 209.875L488.5 209.875L488.5 217.6389320225002" stroke="#323232" stroke-width="2.0" stroke-dasharray="none" fill="none" marker-end="url(#ProcessOnMarker1015)"/></g><g id="ProcessOnG1017"><path id="ProcessOnPath1018" d="M488.5 297.625L488.5 325.25L488.5 325.25L488.5 337.6389320225002" stroke="#323232" stroke-width="2.0" stroke-dasharray="none" fill="none" marker-end="url(#ProcessOnMarker1019)"/><g id="ProcessOnG1021" transform="matrix(1.0,0.0,0.0,1.0,488.5,309.50696601125014)"><path id="ProcessOnPath1022" d="M0 0H143.0V16.25H0Z" fill="#fff" transform="matrix(1.0,0.0,0.0,1.0,-71.5,0.0)"/><text id="ProcessOnText1023" fill="#000000" font-size="13" x="0.0" y="13.325" font-family="微软雅黑" font-weight="normal" font-style="normal" text-decoration="none" family="微软雅黑" text-anchor="middle" size="13">合法，转入对应处理流程</text></g></g><g id="ProcessOnG1024" transform="matrix(1.0,0.0,0.0,1.0,740.0,242.0)" opacity="1.0"><path id="ProcessOnPath1025" d="M0.0 0.0L157.0 0.0L157.0 46.5L0.0 46.5Z" stroke="#323232" stroke-width="2.0" stroke-dasharray="none" opacity="1.0" fill="#ff9999"/><g id="ProcessOnG1026" transform="matrix(1.0,0.0,0.0,1.0,10.0,12.0)"><text id="ProcessOnText1027" fill="#000000" font-size="18" x="67.5" y="18.45" font-family="微软雅黑" font-weight="normal" font-style="normal" text-decoration="none" family="微软雅黑" text-anchor="middle" size="18">return 404</text></g></g><g id="ProcessOnG1028"><path id="ProcessOnPath1029" d="M584.875 265.25L662.4375 265.25L662.4375 265.25L724.7639320225002 265.25" stroke="#323232" stroke-width="2.0" stroke-dasharray="none" fill="none" marker-end="url(#ProcessOnMarker1030)"/><g id="ProcessOnG1032" transform="matrix(1.0,0.0,0.0,1.0,654.8194660112501,257.125)"><path id="ProcessOnPath1033" d="M0 0H39.0V16.25H0Z" fill="#fff" transform="matrix(1.0,0.0,0.0,1.0,-19.5,0.0)"/><text id="ProcessOnText1034" fill="#000000" font-size="13" x="0.0" y="13.325" font-family="微软雅黑" font-weight="normal" font-style="normal" text-decoration="none" family="微软雅黑" text-anchor="middle" size="13">不合法</text></g></g><g id="ProcessOnG1035" transform="matrix(1.0,0.0,0.0,1.0,392.125,352.875)" opacity="1.0"><path id="ProcessOnPath1036" d="M0.0 32.375L96.375 0.0L192.75 32.375L96.375 64.75Z" stroke="#323232" stroke-width="2.0" stroke-dasharray="none" opacity="1.0" fill="#ccffcc"/><g id="ProcessOnG1037" transform="matrix(1.0,0.0,0.0,1.0,10.0,23.94875)"><text id="ProcessOnText1038" fill="#000000" font-size="14" x="85.375" y="14.350000000000001" font-family="微软雅黑" font-weight="normal" font-style="normal" text-decoration="none" family="微软雅黑" text-anchor="middle" size="14">判断接口名称是否存在</text></g></g><g id="ProcessOnG1039"><path id="ProcessOnPath1040" d="M584.875 385.25L818.5 385.25L818.5 303.7360679774998" stroke="#323232" stroke-width="2.0" stroke-dasharray="none" fill="none" marker-end="url(#ProcessOnMarker1041)"/><g id="ProcessOnG1043" transform="matrix(1.0,0.0,0.0,1.0,742.4444660112501,377.125)"><path id="ProcessOnPath1044" d="M0 0H39.0V16.25H0Z" fill="#fff" transform="matrix(1.0,0.0,0.0,1.0,-19.5,0.0)"/><text id="ProcessOnText1045" fill="#000000" font-size="13" x="0.0" y="13.325" font-family="微软雅黑" font-weight="normal" font-style="normal" text-decoration="none" family="微软雅黑" text-anchor="middle" size="13">不存在</text></g></g><g id="ProcessOnG1046" transform="matrix(1.0,0.0,0.0,1.0,392.125,778.0)" opacity="1.0"><path id="ProcessOnPath1047" d="M0.0 32.375L96.375 0.0L192.75 32.375L96.375 64.75Z" stroke="#323232" stroke-width="2.0" stroke-dasharray="none" opacity="1.0" fill="#ccffcc"/><g id="ProcessOnG1048" transform="matrix(1.0,0.0,0.0,1.0,10.0,23.94875)"><text id="ProcessOnText1049" fill="#000000" font-size="14" x="85.375" y="14.350000000000001" font-family="微软雅黑" font-weight="normal" font-style="normal" text-decoration="none" family="微软雅黑" text-anchor="middle" size="14">判断是否特殊接口</text></g></g><g id="ProcessOnG1050"><path id="ProcessOnPath1051" d="M488.5 514.625L488.5 538.25L488.5 538.25L488.5 546.6389320225002" stroke="#323232" stroke-width="2.0" stroke-dasharray="none" fill="none" marker-end="url(#ProcessOnMarker1052)"/><g id="ProcessOnG1054" transform="matrix(1.0,0.0,0.0,1.0,488.5,522.5069660112501)"><path id="ProcessOnPath1055" d="M0 0H26.0V16.25H0Z" fill="#fff" transform="matrix(1.0,0.0,0.0,1.0,-13.0,0.0)"/><text id="ProcessOnText1056" fill="#000000" font-size="13" x="0.0" y="13.325" font-family="微软雅黑" font-weight="normal" font-style="normal" text-decoration="none" family="微软雅黑" text-anchor="middle" size="13">允许</text></g></g><g id="ProcessOnG1057" transform="matrix(1.0,0.0,0.0,1.0,670.0,788.125)" opacity="1.0"><path id="ProcessOnPath1058" d="M0.0 0.0L162.0 0.0L162.0 46.5L0.0 46.5Z" stroke="#323232" stroke-width="2.0" stroke-dasharray="none" opacity="1.0" fill="#ccffff"/><g id="ProcessOnG1059" transform="matrix(1.0,0.0,0.0,1.0,10.0,14.5)"><text id="ProcessOnText1060" fill="#000000" font-size="14" x="70.0" y="14.350000000000001" font-family="微软雅黑" font-weight="normal" font-style="normal" text-decoration="none" family="微软雅黑" text-anchor="middle" size="14">对应特殊接口处理</text></g></g><g id="ProcessOnG1061"><path id="ProcessOnPath1062" d="M584.875 810.375L627.4375 810.375L627.4375 811.375L654.7639320225002 811.375" stroke="#323232" stroke-width="2.0" stroke-dasharray="none" fill="none" marker-end="url(#ProcessOnMarker1063)"/><g id="ProcessOnG1065" transform="matrix(1.0,0.0,0.0,1.0,620.3194660112501,802.25)"><path id="ProcessOnPath1066" d="M0 0H13.0V16.25H0Z" fill="#fff" transform="matrix(1.0,0.0,0.0,1.0,-6.5,0.0)"/><text id="ProcessOnText1067" fill="#000000" font-size="13" x="0.0" y="13.325" font-family="微软雅黑" font-weight="normal" font-style="normal" text-decoration="none" family="微软雅黑" text-anchor="middle" size="13">是</text></g></g><g id="ProcessOnG1068" transform="matrix(1.0,0.0,0.0,1.0,893.125,779.0)" opacity="1.0"><path id="ProcessOnPath1069" d="M0.0 32.375L96.375 0.0L192.75 32.375L96.375 64.75Z" stroke="#323232" stroke-width="2.0" stroke-dasharray="none" opacity="1.0" fill="#ccffcc"/><g id="ProcessOnG1070" transform="matrix(1.0,0.0,0.0,1.0,10.0,23.94875)"><text id="ProcessOnText1071" fill="#000000" font-size="14" x="85.375" y="14.350000000000001" font-family="微软雅黑" font-weight="normal" font-style="normal" text-decoration="none" family="微软雅黑" text-anchor="middle" size="14">是否异常结果</text></g></g><g id="ProcessOnG1072"><path id="ProcessOnPath1073" d="M832.0 811.375L862.5625 811.375L862.5625 811.375L877.8889320225002 811.375" stroke="#323232" stroke-width="2.0" stroke-dasharray="none" fill="none" marker-end="url(#ProcessOnMarker1074)"/></g><g id="ProcessOnG1076" transform="matrix(1.0,0.0,0.0,1.0,911.0,679.125)" opacity="1.0"><path id="ProcessOnPath1077" d="M0.0 0.0L157.0 0.0L157.0 46.5L0.0 46.5Z" stroke="#323232" stroke-width="2.0" stroke-dasharray="none" opacity="1.0" fill="#ff9999"/><g id="ProcessOnG1078" transform="matrix(1.0,0.0,0.0,1.0,10.0,13.25)"><text id="ProcessOnText1079" fill="#000000" font-size="16" x="67.5" y="16.4" font-family="微软雅黑" font-weight="normal" font-style="normal" text-decoration="none" family="微软雅黑" text-anchor="middle" size="16">返回异常结果</text></g></g><g id="ProcessOnG1080"><path id="ProcessOnPath1081" d="M989.5 779.0L989.5 752.3125L989.5 752.3125L989.5 740.8610679774998" stroke="#323232" stroke-width="2.0" stroke-dasharray="none" fill="none" marker-end="url(#ProcessOnMarker1082)"/><g id="ProcessOnG1084" transform="matrix(1.0,0.0,0.0,1.0,989.5,751.8055339887499)"><path id="ProcessOnPath1085" d="M0 0H26.0V16.25H0Z" fill="#fff" transform="matrix(1.0,0.0,0.0,1.0,-13.0,0.0)"/><text id="ProcessOnText1086" fill="#000000" font-size="13" x="0.0" y="13.325" font-family="微软雅黑" font-weight="normal" font-style="normal" text-decoration="none" family="微软雅黑" text-anchor="middle" size="13">异常</text></g></g><g id="ProcessOnG1087" transform="matrix(1.0,0.0,0.0,1.0,911.0,903.0)" opacity="1.0"><path id="ProcessOnPath1088" d="M0.0 0.0L157.0 0.0L157.0 46.5L0.0 46.5Z" stroke="#323232" stroke-width="2.0" stroke-dasharray="none" opacity="1.0" fill="#cce5ff"/><g id="ProcessOnG1089" transform="matrix(1.0,0.0,0.0,1.0,10.0,14.5)"><text id="ProcessOnText1090" fill="#000000" font-size="14" x="67.5" y="14.350000000000001" font-family="微软雅黑" font-weight="normal" font-style="normal" text-decoration="none" family="微软雅黑" text-anchor="middle" size="14">返回正常结果</text></g></g><g id="ProcessOnG1091"><path id="ProcessOnPath1092" d="M989.5 843.75L989.5 873.375L989.5 873.375L989.5 887.7639320225002" stroke="#323232" stroke-width="2.0" stroke-dasharray="none" fill="none" marker-end="url(#ProcessOnMarker1093)"/><g id="ProcessOnG1095" transform="matrix(1.0,0.0,0.0,1.0,989.5,857.6319660112501)"><path id="ProcessOnPath1096" d="M0 0H26.0V16.25H0Z" fill="#fff" transform="matrix(1.0,0.0,0.0,1.0,-13.0,0.0)"/><text id="ProcessOnText1097" fill="#000000" font-size="13" x="0.0" y="13.325" font-family="微软雅黑" font-weight="normal" font-style="normal" text-decoration="none" family="微软雅黑" text-anchor="middle" size="13">正常</text></g></g><g id="ProcessOnG1098" transform="matrix(1.0,0.0,0.0,1.0,392.125,449.875)" opacity="1.0"><path id="ProcessOnPath1099" d="M0.0 32.375L96.375 0.0L192.75 32.375L96.375 64.75Z" stroke="#323232" stroke-width="2.0" stroke-dasharray="none" opacity="1.0" fill="#ccffcc"/><g id="ProcessOnG1100" transform="matrix(1.0,0.0,0.0,1.0,10.0,23.94875)"><text id="ProcessOnText1101" fill="#000000" font-size="14" x="85.375" y="14.350000000000001" font-family="微软雅黑" font-weight="normal" font-style="normal" text-decoration="none" family="微软雅黑" text-anchor="middle" size="14">判断是否允许的请求方法</text></g></g><g id="ProcessOnG1102"><path id="ProcessOnPath1103" d="M488.5 417.625L488.5 433.75L488.5 433.75L488.5 434.6389320225002" stroke="#323232" stroke-width="2.0" stroke-dasharray="none" fill="none" marker-end="url(#ProcessOnMarker1104)"/></g><g id="ProcessOnG1106" transform="matrix(1.0,0.0,0.0,1.0,117.0,459.0)" opacity="1.0"><path id="ProcessOnPath1107" d="M0.0 0.0L157.0 0.0L157.0 46.5L0.0 46.5Z" stroke="#323232" stroke-width="2.0" stroke-dasharray="none" opacity="1.0" fill="#ff9999"/><g id="ProcessOnG1108" transform="matrix(1.0,0.0,0.0,1.0,10.0,12.0)"><text id="ProcessOnText1109" fill="#000000" font-size="18" x="67.5" y="18.45" font-family="微软雅黑" font-weight="normal" font-style="normal" text-decoration="none" family="微软雅黑" text-anchor="middle" size="18">return 405</text></g></g><g id="ProcessOnG1110"><path id="ProcessOnPath1111" d="M392.125 482.25L333.0625 482.25L333.0625 482.25L289.2360679774998 482.25" stroke="#323232" stroke-width="2.0" stroke-dasharray="none" fill="none" marker-end="url(#ProcessOnMarker1112)"/><g id="ProcessOnG1114" transform="matrix(1.0,0.0,0.0,1.0,340.68053398874986,474.125)"><path id="ProcessOnPath1115" d="M0 0H39.0V16.25H0Z" fill="#fff" transform="matrix(1.0,0.0,0.0,1.0,-19.5,0.0)"/><text id="ProcessOnText1116" fill="#000000" font-size="13" x="0.0" y="13.325" font-family="微软雅黑" font-weight="normal" font-style="normal" text-decoration="none" family="微软雅黑" text-anchor="middle" size="13">不允许</text></g></g><g id="ProcessOnG1117" transform="matrix(1.0,0.0,0.0,1.0,367.5625,880.0)" opacity="1.0"><path id="ProcessOnPath1118" d="M0.0 32.5L120.9375 0.0L241.875 32.5L120.9375 65.0Z" stroke="#323232" stroke-width="2.0" stroke-dasharray="none" opacity="1.0" fill="#ccffcc"/><g id="ProcessOnG1119" transform="matrix(1.0,0.0,0.0,1.0,10.0,24.075000000000003)"><text id="ProcessOnText1120" fill="#000000" font-size="14" x="109.9375" y="14.350000000000001" font-family="微软雅黑" font-weight="normal" font-style="normal" text-decoration="none" family="微软雅黑" text-anchor="middle" size="14">查看是否存在对应前处理程序</text></g></g><g id="ProcessOnG1121"><path id="ProcessOnPath1122" d="M488.5 842.75L488.5 861.375L488.5 861.375L488.5 864.7639320225002" stroke="#323232" stroke-width="2.0" stroke-dasharray="none" fill="none" marker-end="url(#ProcessOnMarker1123)"/><g id="ProcessOnG1125" transform="matrix(1.0,0.0,0.0,1.0,488.5,845.6319660112501)"><path id="ProcessOnPath1126" d="M0 0H145.0V16.25H0Z" fill="#fff" transform="matrix(1.0,0.0,0.0,1.0,-72.5,0.0)"/><text id="ProcessOnText1127" fill="#000000" font-size="13" x="0.0" y="13.325" font-family="微软雅黑" font-weight="normal" font-style="normal" text-decoration="none" family="微软雅黑" text-anchor="middle" size="13">标准数据库 RESTful 接口</text></g></g><g id="ProcessOnG1128" transform="matrix(1.0,0.0,0.0,1.0,117.0,391.875)" opacity="1.0"><path id="ProcessOnPath1129" d="M0.0 0.0L220.0 0.0L236.0 16.0L236.0 58.0L0.0 58.0L0.0 0.0Z" stroke="none" stroke-width="0.0" stroke-dasharray="none" opacity="1.0" fill="#ffffaa"/><path id="ProcessOnPath1130" d="M220.0 0.0L220.0 16.0L236.0 16.0Z" stroke="none" stroke-width="0.0" stroke-dasharray="none" opacity="1.0" fill="#cdcd78"/><path id="ProcessOnPath1131" d="M0.0 0.0L220.0 0.0L236.0 16.0L236.0 58.0L0.0 58.0L0.0 0.0Z" stroke="none" stroke-width="0.0" stroke-dasharray="none" opacity="1.0" fill="none"/><g id="ProcessOnG1132" transform="matrix(1.0,0.0,0.0,1.0,10.0,12.75)"><text id="ProcessOnText1133" fill="#000000" font-size="13" x="0.0" y="13.325" font-family="微软雅黑" font-weight="normal" font-style="normal" text-decoration="none" family="微软雅黑" text-anchor="start" size="13">/xxx 只允许 GET\POST</text><text id="ProcessOnText1134" fill="#000000" font-size="13" x="0.0" y="29.575" font-family="微软雅黑" font-weight="normal" font-style="normal" text-decoration="none" family="微软雅黑" text-anchor="start" size="13">/xxx/:id 只允许 GET\PUT\DELETE</text></g></g><g id="ProcessOnG1135" transform="matrix(1.0,0.0,0.0,1.0,407.5,986.125)" opacity="1.0"><path id="ProcessOnPath1136" d="M0.0 0.0L162.0 0.0L162.0 46.5L0.0 46.5Z" stroke="#323232" stroke-width="2.0" stroke-dasharray="none" opacity="1.0" fill="#ccffff"/><g id="ProcessOnG1137" transform="matrix(1.0,0.0,0.0,1.0,10.0,14.5)"><text id="ProcessOnText1138" fill="#000000" font-size="14" x="70.0" y="14.350000000000001" font-family="微软雅黑" font-weight="normal" font-style="normal" text-decoration="none" family="微软雅黑" text-anchor="middle" size="14">对请求参数进行前处理</text></g></g><g id="ProcessOnG1139"><path id="ProcessOnPath1140" d="M488.5 945.0L488.5 965.5625L488.5 965.5625L488.5 970.8889320225002" stroke="#323232" stroke-width="2.0" stroke-dasharray="none" fill="none" marker-end="url(#ProcessOnMarker1141)"/><g id="ProcessOnG1143" transform="matrix(1.0,0.0,0.0,1.0,488.5,949.8194660112501)"><path id="ProcessOnPath1144" d="M0 0H26.0V16.25H0Z" fill="#fff" transform="matrix(1.0,0.0,0.0,1.0,-13.0,0.0)"/><text id="ProcessOnText1145" fill="#000000" font-size="13" x="0.0" y="13.325" font-family="微软雅黑" font-weight="normal" font-style="normal" text-decoration="none" family="微软雅黑" text-anchor="middle" size="13">存在</text></g></g><g id="ProcessOnG1146"><path id="ProcessOnPath1147" d="M488.5 1032.625L488.5 1052.375L488.5 1052.375L488.5 1056.8889320225003" stroke="#323232" stroke-width="2.0" stroke-dasharray="none" fill="none" marker-end="url(#ProcessOnMarker1148)"/></g><g id="ProcessOnG1150" transform="matrix(1.0,0.0,0.0,1.0,385.28125,1074.0)" opacity="1.0"><path id="ProcessOnPath1151" d="M0.0 30.0L103.21875 0.0L206.4375 30.0L103.21875 60.0Z" stroke="#323232" stroke-width="2.0" stroke-dasharray="none" opacity="1.0" fill="#ccffcc"/><g id="ProcessOnG1152" transform="matrix(1.0,0.0,0.0,1.0,10.0,21.55)"><text id="ProcessOnText1153" fill="#000000" font-size="14" x="92.21875" y="14.350000000000001" font-family="微软雅黑" font-weight="normal" font-style="normal" text-decoration="none" family="微软雅黑" text-anchor="middle" size="14">前处理结果是否返回结果</text></g></g><g id="ProcessOnG1154" transform="matrix(1.0,0.0,0.0,1.0,677.5,1080.75)" opacity="1.0"><path id="ProcessOnPath1155" d="M0.0 0.0L162.0 0.0L162.0 46.5L0.0 46.5Z" stroke="#323232" stroke-width="2.0" stroke-dasharray="none" opacity="1.0" fill="#cce5ff"/><g id="ProcessOnG1156" transform="matrix(1.0,0.0,0.0,1.0,10.0,14.5)"><text id="ProcessOnText1157" fill="#000000" font-size="14" x="70.0" y="14.350000000000001" font-family="微软雅黑" font-weight="normal" font-style="normal" text-decoration="none" family="微软雅黑" text-anchor="middle" size="14">返回结果</text></g></g><g id="ProcessOnG1158"><path id="ProcessOnPath1159" d="M591.71875 1104.0L634.609375 1104.0L634.609375 1104.0L662.2639320225002 1104.0" stroke="#323232" stroke-width="2.0" stroke-dasharray="none" fill="none" marker-end="url(#ProcessOnMarker1160)"/><g id="ProcessOnG1162" transform="matrix(1.0,0.0,0.0,1.0,626.9913410112501,1095.875)"><path id="ProcessOnPath1163" d="M0 0H13.0V16.25H0Z" fill="#fff" transform="matrix(1.0,0.0,0.0,1.0,-6.5,0.0)"/><text id="ProcessOnText1164" fill="#000000" font-size="13" x="0.0" y="13.325" font-family="微软雅黑" font-weight="normal" font-style="normal" text-decoration="none" family="微软雅黑" text-anchor="middle" size="13">是</text></g></g><g id="ProcessOnG1165" transform="matrix(1.0,0.0,0.0,1.0,407.5,1171.75)" opacity="1.0"><path id="ProcessOnPath1166" d="M0.0 0.0L162.0 0.0L162.0 46.5L0.0 46.5Z" stroke="#323232" stroke-width="2.0" stroke-dasharray="none" opacity="1.0" fill="#ccffff"/><g id="ProcessOnG1167" transform="matrix(1.0,0.0,0.0,1.0,10.0,14.5)"><text id="ProcessOnText1168" fill="#000000" font-size="14" x="70.0" y="14.350000000000001" font-family="微软雅黑" font-weight="normal" font-style="normal" text-decoration="none" family="微软雅黑" text-anchor="middle" size="14">组织查询语句</text></g></g><g id="ProcessOnG1169"><path id="ProcessOnPath1170" d="M488.5 1134.0L488.5 1152.875L488.5 1152.875L488.5 1156.5139320225003" stroke="#323232" stroke-width="2.0" stroke-dasharray="none" fill="none" marker-end="url(#ProcessOnMarker1171)"/><g id="ProcessOnG1173" transform="matrix(1.0,0.0,0.0,1.0,488.5,1137.1319660112501)"><path id="ProcessOnPath1174" d="M0 0H13.0V16.25H0Z" fill="#fff" transform="matrix(1.0,0.0,0.0,1.0,-6.5,0.0)"/><text id="ProcessOnText1175" fill="#000000" font-size="13" x="0.0" y="13.325" font-family="微软雅黑" font-weight="normal" font-style="normal" text-decoration="none" family="微软雅黑" text-anchor="middle" size="13">否</text></g></g><g id="ProcessOnG1176" transform="matrix(1.0,0.0,0.0,1.0,407.5,1258.75)" opacity="1.0"><path id="ProcessOnPath1177" d="M0.0 0.0L162.0 0.0L162.0 46.5L0.0 46.5Z" stroke="#323232" stroke-width="2.0" stroke-dasharray="none" opacity="1.0" fill="#ccffff"/><g id="ProcessOnG1178" transform="matrix(1.0,0.0,0.0,1.0,10.0,14.5)"><text id="ProcessOnText1179" fill="#000000" font-size="14" x="70.0" y="14.350000000000001" font-family="微软雅黑" font-weight="normal" font-style="normal" text-decoration="none" family="微软雅黑" text-anchor="middle" size="14">ORM 查询数据库</text></g></g><g id="ProcessOnG1180"><path id="ProcessOnPath1181" d="M488.5 1218.25L488.5 1238.5L488.5 1238.5L488.5 1243.5139320225003" stroke="#323232" stroke-width="2.0" stroke-dasharray="none" fill="none" marker-end="url(#ProcessOnMarker1182)"/></g><g id="ProcessOnG1184" transform="matrix(1.0,0.0,0.0,1.0,407.5,1338.75)" opacity="1.0"><path id="ProcessOnPath1185" d="M0.0 0.0L162.0 0.0L162.0 46.5L0.0 46.5Z" stroke="#323232" stroke-width="2.0" stroke-dasharray="none" opacity="1.0" fill="#ccffff"/><g id="ProcessOnG1186" transform="matrix(1.0,0.0,0.0,1.0,10.0,14.5)"><text id="ProcessOnText1187" fill="#000000" font-size="14" x="70.0" y="14.350000000000001" font-family="微软雅黑" font-weight="normal" font-style="normal" text-decoration="none" family="微软雅黑" text-anchor="middle" size="14">返回查询结果</text></g></g><g id="ProcessOnG1188"><path id="ProcessOnPath1189" d="M488.5 1305.25L488.5 1322.0L488.5 1322.0L488.5 1323.5139320225003" stroke="#323232" stroke-width="2.0" stroke-dasharray="none" fill="none" marker-end="url(#ProcessOnMarker1190)"/></g><g id="ProcessOnG1192" transform="matrix(1.0,0.0,0.0,1.0,367.5625,1421.0)" opacity="1.0"><path id="ProcessOnPath1193" d="M0.0 32.5L120.9375 0.0L241.875 32.5L120.9375 65.0Z" stroke="#323232" stroke-width="2.0" stroke-dasharray="none" opacity="1.0" fill="#ccffcc"/><g id="ProcessOnG1194" transform="matrix(1.0,0.0,0.0,1.0,10.0,24.075000000000003)"><text id="ProcessOnText1195" fill="#000000" font-size="14" x="109.9375" y="14.350000000000001" font-family="微软雅黑" font-weight="normal" font-style="normal" text-decoration="none" family="微软雅黑" text-anchor="middle" size="14">查看是否存在对应后处理程序</text></g></g><g id="ProcessOnG1196"><path id="ProcessOnPath1197" d="M488.5 1385.25L488.5 1403.125L488.5 1403.125L488.5 1405.7639320225003" stroke="#323232" stroke-width="2.0" stroke-dasharray="none" fill="none" marker-end="url(#ProcessOnMarker1198)"/></g><g id="ProcessOnG1200" transform="matrix(1.0,0.0,0.0,1.0,737.5,1430.25)" opacity="1.0"><path id="ProcessOnPath1201" d="M0.0 0.0L162.0 0.0L162.0 46.5L0.0 46.5Z" stroke="#323232" stroke-width="2.0" stroke-dasharray="none" opacity="1.0" fill="#cce5ff"/><g id="ProcessOnG1202" transform="matrix(1.0,0.0,0.0,1.0,10.0,14.5)"><text id="ProcessOnText1203" fill="#000000" font-size="14" x="70.0" y="14.350000000000001" font-family="微软雅黑" font-weight="normal" font-style="normal" text-decoration="none" family="微软雅黑" text-anchor="middle" size="14">返回结果</text></g></g><g id="ProcessOnG1204"><path id="ProcessOnPath1205" d="M609.4375 1453.5L673.46875 1453.5L673.46875 1453.5L722.2639320225002 1453.5" stroke="#323232" stroke-width="2.0" stroke-dasharray="none" fill="none" marker-end="url(#ProcessOnMarker1206)"/><g id="ProcessOnG1208" transform="matrix(1.0,0.0,0.0,1.0,665.8507160112501,1445.375)"><path id="ProcessOnPath1209" d="M0 0H39.0V16.25H0Z" fill="#fff" transform="matrix(1.0,0.0,0.0,1.0,-19.5,0.0)"/><text id="ProcessOnText1210" fill="#000000" font-size="13" x="0.0" y="13.325" font-family="微软雅黑" font-weight="normal" font-style="normal" text-decoration="none" family="微软雅黑" text-anchor="middle" size="13">不存在</text></g></g><g id="ProcessOnG1211" transform="matrix(1.0,0.0,0.0,1.0,407.5,1530.75)" opacity="1.0"><path id="ProcessOnPath1212" d="M0.0 0.0L162.0 0.0L162.0 46.5L0.0 46.5Z" stroke="#323232" stroke-width="2.0" stroke-dasharray="none" opacity="1.0" fill="#ccffff"/><g id="ProcessOnG1213" transform="matrix(1.0,0.0,0.0,1.0,10.0,14.5)"><text id="ProcessOnText1214" fill="#000000" font-size="14" x="70.0" y="14.350000000000001" font-family="微软雅黑" font-weight="normal" font-style="normal" text-decoration="none" family="微软雅黑" text-anchor="middle" size="14">对返回结果进行处理</text></g></g><g id="ProcessOnG1215"><path id="ProcessOnPath1216" d="M488.5 1486.0L488.5 1508.375L488.5 1508.375L488.5 1515.5139320225003" stroke="#323232" stroke-width="2.0" stroke-dasharray="none" fill="none" marker-end="url(#ProcessOnMarker1217)"/><g id="ProcessOnG1219" transform="matrix(1.0,0.0,0.0,1.0,488.5,1492.6319660112501)"><path id="ProcessOnPath1220" d="M0 0H26.0V16.25H0Z" fill="#fff" transform="matrix(1.0,0.0,0.0,1.0,-13.0,0.0)"/><text id="ProcessOnText1221" fill="#000000" font-size="13" x="0.0" y="13.325" font-family="微软雅黑" font-weight="normal" font-style="normal" text-decoration="none" family="微软雅黑" text-anchor="middle" size="13">存在</text></g></g><g id="ProcessOnG1222" transform="matrix(1.0,0.0,0.0,1.0,407.5,1622.25)" opacity="1.0"><path id="ProcessOnPath1223" d="M0.0 0.0L162.0 0.0L162.0 46.5L0.0 46.5Z" stroke="#323232" stroke-width="2.0" stroke-dasharray="none" opacity="1.0" fill="#cce5ff"/><g id="ProcessOnG1224" transform="matrix(1.0,0.0,0.0,1.0,10.0,14.5)"><text id="ProcessOnText1225" fill="#000000" font-size="14" x="70.0" y="14.350000000000001" font-family="微软雅黑" font-weight="normal" font-style="normal" text-decoration="none" family="微软雅黑" text-anchor="middle" size="14">返回结果</text></g></g><g id="ProcessOnG1226"><path id="ProcessOnPath1227" d="M488.5 1577.25L488.5 1599.75L488.5 1599.75L488.5 1607.0139320225003" stroke="#323232" stroke-width="2.0" stroke-dasharray="none" fill="none" marker-end="url(#ProcessOnMarker1228)"/></g><g id="ProcessOnG1230"><path id="ProcessOnPath1231" d="M367.5625 912.5L337.5625 912.5L337.5625 1195.0L392.2639320225002 1195.0" stroke="#323232" stroke-width="2.0" stroke-dasharray="none" fill="none" marker-end="url(#ProcessOnMarker1232)"/><g id="ProcessOnG1234" transform="matrix(1.0,0.0,0.0,1.0,337.5625,1057.9757160112501)"><path id="ProcessOnPath1235" d="M0 0H39.0V16.25H0Z" fill="#fff" transform="matrix(1.0,0.0,0.0,1.0,-19.5,0.0)"/><text id="ProcessOnText1236" fill="#000000" font-size="13" x="0.0" y="13.325" font-family="微软雅黑" font-weight="normal" font-style="normal" text-decoration="none" family="微软雅黑" text-anchor="middle" size="13">不存在</text></g></g><g id="ProcessOnG1237" transform="matrix(1.0,0.0,0.0,1.0,123.0,1213.0)" opacity="1.0"><path id="ProcessOnPath1238" d="M15.659999999999998 0.0L129.34 0.0L145.0 15.659999999999998L145.0 38.339999999999996L129.34 54.0L15.659999999999998 54.0L0.0 38.339999999999996L0.0 15.659999999999998Z" stroke="#323232" stroke-width="2.0" stroke-dasharray="none" opacity="1.0" fill="#ffccff"/><g id="ProcessOnG1239" transform="matrix(1.0,0.0,0.0,1.0,10.0,16.375)"><text id="ProcessOnText1240" fill="#000000" font-size="17" x="61.5" y="17.425" font-family="微软雅黑" font-weight="normal" font-style="normal" text-decoration="none" family="微软雅黑" text-anchor="middle" size="17">程序输出异常</text></g></g><g id="ProcessOnG1241" transform="matrix(1.0,0.0,0.0,1.0,117.0,1317.125)" opacity="1.0"><path id="ProcessOnPath1242" d="M0.0 0.0L157.0 0.0L157.0 46.5L0.0 46.5Z" stroke="#323232" stroke-width="2.0" stroke-dasharray="none" opacity="1.0" fill="#ff9999"/><g id="ProcessOnG1243" transform="matrix(1.0,0.0,0.0,1.0,10.0,12.0)"><text id="ProcessOnText1244" fill="#000000" font-size="18" x="67.5" y="18.45" font-family="微软雅黑" font-weight="normal" font-style="normal" text-decoration="none" family="微软雅黑" text-anchor="middle" size="18">return 503</text></g></g><g id="ProcessOnG1245"><path id="ProcessOnPath1246" d="M195.5 1267.0L195.5 1292.0625L195.5 1292.0625L195.5 1301.8889320225003" stroke="#323232" stroke-width="2.0" stroke-dasharray="none" fill="none" marker-end="url(#ProcessOnMarker1247)"/></g><g id="ProcessOnG1249" transform="matrix(1.0,0.0,0.0,1.0,123.0,1421.0)" opacity="1.0"><path id="ProcessOnPath1250" d="M15.659999999999998 0.0L129.34 0.0L145.0 15.659999999999998L145.0 38.339999999999996L129.34 54.0L15.659999999999998 54.0L0.0 38.339999999999996L0.0 15.659999999999998Z" stroke="#323232" stroke-width="2.0" stroke-dasharray="none" opacity="1.0" fill="#ffccff"/><g id="ProcessOnG1251" transform="matrix(1.0,0.0,0.0,1.0,10.0,16.375)"><text id="ProcessOnText1252" fill="#000000" font-size="17" x="61.5" y="17.425" font-family="微软雅黑" font-weight="normal" font-style="normal" text-decoration="none" family="微软雅黑" text-anchor="middle" size="17">程序未知错误</text></g></g><g id="ProcessOnG1253" transform="matrix(1.0,0.0,0.0,1.0,117.0,1525.125)" opacity="1.0"><path id="ProcessOnPath1254" d="M0.0 0.0L157.0 0.0L157.0 46.5L0.0 46.5Z" stroke="#323232" stroke-width="2.0" stroke-dasharray="none" opacity="1.0" fill="#ff9999"/><g id="ProcessOnG1255" transform="matrix(1.0,0.0,0.0,1.0,10.0,12.0)"><text id="ProcessOnText1256" fill="#000000" font-size="18" x="67.5" y="18.45" font-family="微软雅黑" font-weight="normal" font-style="normal" text-decoration="none" family="微软雅黑" text-anchor="middle" size="18">return 500</text></g></g><g id="ProcessOnG1257"><path id="ProcessOnPath1258" d="M195.5 1475.0L195.5 1500.0625L195.5 1500.0625L195.5 1509.8889320225003" stroke="#323232" stroke-width="2.0" stroke-dasharray="none" fill="none" marker-end="url(#ProcessOnMarker1259)"/></g><g id="ProcessOnG1261" transform="matrix(1.0,0.0,0.0,1.0,392.125,561.875)" opacity="1.0"><path id="ProcessOnPath1262" d="M0.0 32.375L96.375 0.0L192.75 32.375L96.375 64.75Z" stroke="#323232" stroke-width="2.0" stroke-dasharray="none" opacity="1.0" fill="#ccffcc"/><g id="ProcessOnG1263" transform="matrix(1.0,0.0,0.0,1.0,10.0,23.94875)"><text id="ProcessOnText1264" fill="#000000" font-size="14" x="85.375" y="14.350000000000001" font-family="微软雅黑" font-weight="normal" font-style="normal" text-decoration="none" family="微软雅黑" text-anchor="middle" size="14">判断是否要求登录</text></g></g><g id="ProcessOnG1265" transform="matrix(1.0,0.0,0.0,1.0,392.125,660.875)" opacity="1.0"><path id="ProcessOnPath1266" d="M0.0 32.375L96.375 0.0L192.75 32.375L96.375 64.75Z" stroke="#323232" stroke-width="2.0" stroke-dasharray="none" opacity="1.0" fill="#ccffcc"/><g id="ProcessOnG1267" transform="matrix(1.0,0.0,0.0,1.0,10.0,23.94875)"><text id="ProcessOnText1268" fill="#000000" font-size="14" x="85.375" y="14.350000000000001" font-family="微软雅黑" font-weight="normal" font-style="normal" text-decoration="none" family="微软雅黑" text-anchor="middle" size="14">判断是否登录</text></g></g><g id="ProcessOnG1269"><path id="ProcessOnPath1270" d="M488.5 626.625L488.5 643.75L488.5 643.75L488.5 645.6389320225002" stroke="#323232" stroke-width="2.0" stroke-dasharray="none" fill="none" marker-end="url(#ProcessOnMarker1271)"/><g id="ProcessOnG1273" transform="matrix(1.0,0.0,0.0,1.0,488.5,628.0069660112501)"><path id="ProcessOnPath1274" d="M0 0H52.0V16.25H0Z" fill="#fff" transform="matrix(1.0,0.0,0.0,1.0,-26.0,0.0)"/><text id="ProcessOnText1275" fill="#000000" font-size="13" x="0.0" y="13.325" font-family="微软雅黑" font-weight="normal" font-style="normal" text-decoration="none" family="微软雅黑" text-anchor="middle" size="13">要求登录</text></g></g><g id="ProcessOnG1276"><path id="ProcessOnPath1277" d="M392.125 594.25L337.125 594.25L337.125 810.375L376.8889320225002 810.375" stroke="#323232" stroke-width="2.0" stroke-dasharray="none" fill="none" marker-end="url(#ProcessOnMarker1278)"/><g id="ProcessOnG1280" transform="matrix(1.0,0.0,0.0,1.0,337.125,686.5694660112501)"><path id="ProcessOnPath1281" d="M0 0H65.0V16.25H0Z" fill="#fff" transform="matrix(1.0,0.0,0.0,1.0,-32.5,0.0)"/><text id="ProcessOnText1282" fill="#000000" font-size="13" x="0.0" y="13.325" font-family="微软雅黑" font-weight="normal" font-style="normal" text-decoration="none" family="微软雅黑" text-anchor="middle" size="13">不要求登录</text></g></g><g id="ProcessOnG1283"><path id="ProcessOnPath1284" d="M488.5 725.625L488.5 751.8125L488.5 751.8125L488.5 762.7639320225002" stroke="#323232" stroke-width="2.0" stroke-dasharray="none" fill="none" marker-end="url(#ProcessOnMarker1285)"/><g id="ProcessOnG1287" transform="matrix(1.0,0.0,0.0,1.0,488.5,736.0694660112501)"><path id="ProcessOnPath1288" d="M0 0H52.0V16.25H0Z" fill="#fff" transform="matrix(1.0,0.0,0.0,1.0,-26.0,0.0)"/><text id="ProcessOnText1289" fill="#000000" font-size="13" x="0.0" y="13.325" font-family="微软雅黑" font-weight="normal" font-style="normal" text-decoration="none" family="微软雅黑" text-anchor="middle" size="13">已经登录</text></g></g><g id="ProcessOnG1290" transform="matrix(1.0,0.0,0.0,1.0,675.0,670.0)" opacity="1.0"><path id="ProcessOnPath1291" d="M0.0 0.0L157.0 0.0L157.0 46.5L0.0 46.5Z" stroke="#323232" stroke-width="2.0" stroke-dasharray="none" opacity="1.0" fill="#ff9999"/><g id="ProcessOnG1292" transform="matrix(1.0,0.0,0.0,1.0,10.0,12.0)"><text id="ProcessOnText1293" fill="#000000" font-size="18" x="67.5" y="18.45" font-family="微软雅黑" font-weight="normal" font-style="normal" text-decoration="none" family="微软雅黑" text-anchor="middle" size="18">return 401</text></g></g><g id="ProcessOnG1294"><path id="ProcessOnPath1295" d="M584.875 693.25L629.9375 693.25L629.9375 693.25L659.7639320225002 693.25" stroke="#323232" stroke-width="2.0" stroke-dasharray="none" fill="none" marker-end="url(#ProcessOnMarker1296)"/><g id="ProcessOnG1298" transform="matrix(1.0,0.0,0.0,1.0,622.3194660112501,685.125)"><path id="ProcessOnPath1299" d="M0 0H39.0V16.25H0Z" fill="#fff" transform="matrix(1.0,0.0,0.0,1.0,-19.5,0.0)"/><text id="ProcessOnText1300" fill="#000000" font-size="13" x="0.0" y="13.325" font-family="微软雅黑" font-weight="normal" font-style="normal" text-decoration="none" family="微软雅黑" text-anchor="middle" size="13">未登录</text></g></g></g></g></svg>